ISO-10303-21;
HEADER;
FILE_DESCRIPTION (( 'STEP AP214' ),
    '1' );
FILE_NAME ('ANT-DB1-NSP250-T.STEP',
    '2024-09-18T17:03:13',
    ( '' ),
    ( '' ),
    'SwSTEP 2.0',
    'SolidWorks 2024',
    '' );
FILE_SCHEMA (( 'AUTOMOTIVE_DESIGN' ));
ENDSEC;

DATA;
#1 = EDGE_CURVE ( 'NONE', #861, #923, #7, .T. ) ;
#2 = DIRECTION ( 'NONE',  ( 0.000000000000000000, 0.000000000000000000, -1.000000000000000000 ) ) ;
#3 = ORIENTED_EDGE ( 'NONE', *, *, #498, .T. ) ;
#4 = SURFACE_STYLE_USAGE ( .BOTH. , #740 ) ;
#5 = PRESENTATION_LAYER_ASSIGNMENT (  '', '', ( #273 ) ) ;
#6 = STYLED_ITEM ( 'NONE', ( #753 ), #344 ) ;
#7 = B_SPLINE_CURVE_WITH_KNOTS ( 'NONE', 3,
 ( #569, #70, #490, #564 ),
 .UNSPECIFIED., .F., .F.,
 ( 4, 4 ),
 ( 0.000000000000000000, 1.064033317319667423E-06 ),
 .UNSPECIFIED. ) ;
#8 = SURFACE_STYLE_USAGE ( .BOTH. , #312 ) ;
#9 = CARTESIAN_POINT ( 'NONE',  ( -3.520000000000000018, 0.9672821430248630392, -0.7700000000000000178 ) ) ;
#10 = UNCERTAINTY_MEASURE_WITH_UNIT (LENGTH_MEASURE( 1.000000000000000082E-05 ), #741, 'distance_accuracy_value', 'NONE');
#11 = ORIENTED_EDGE ( 'NONE', *, *, #618, .T. ) ;
#12 = CARTESIAN_POINT ( 'NONE',  ( 2.329972617288611492, 3.594396134800000198, -0.09350626257644431560 ) ) ;
#13 = CARTESIAN_POINT ( 'NONE',  ( -3.520000000000000018, 3.594396134800000198, 0.000000000000000000 ) ) ;
#14 = SURFACE_STYLE_USAGE ( .BOTH. , #160 ) ;
#15 = CARTESIAN_POINT ( 'NONE',  ( 1.560000000000000275, 3.594396134800000198, -0.1000000000000000056 ) ) ;
#16 = VERTEX_POINT ( 'NONE', #700 ) ;
#17 = EDGE_CURVE ( 'NONE', #97, #842, #58, .T. ) ;
#18 = SURFACE_SIDE_STYLE ('',( #92 ) ) ;
#19 = CARTESIAN_POINT ( 'NONE',  ( -4.790000000000000036, 0.000000000000000000, 0.000000000000000000 ) ) ;
#20 = LINE ( 'NONE', #587, #475 ) ;
#21 = ORIENTED_EDGE ( 'NONE', *, *, #556, .F. ) ;
#22 =( LENGTH_UNIT ( ) NAMED_UNIT ( * ) SI_UNIT ( .MILLI., .METRE. ) );
#23 = EDGE_CURVE ( 'NONE', #888, #911, #930, .T. ) ;
#24 = MECHANICAL_DESIGN_GEOMETRIC_PRESENTATION_REPRESENTATION (  '', ( #759 ), #474 ) ;
#25 = VECTOR ( 'NONE', #105, 1000.000000000000000 ) ;
#26 = APPLICATION_PROTOCOL_DEFINITION ( 'draft international standard', 'automotive_design', 1998, #887 ) ;
#27 = FACE_OUTER_BOUND ( 'NONE', #495, .T. ) ;
#28 = ORIENTED_EDGE ( 'NONE', *, *, #207, .T. ) ;
#29 = LINE ( 'NONE', #458, #448 ) ;
#30 = EDGE_CURVE ( 'NONE', #245, #16, #358, .T. ) ;
#31 =( NAMED_UNIT ( * ) SI_UNIT ( $, .STERADIAN. ) SOLID_ANGLE_UNIT ( ) );
#32 = CARTESIAN_POINT ( 'NONE',  ( 0.7900376765397981726, 0.9899999999999965494, -0.1076171157118313154 ) ) ;
#33 = ORIENTED_EDGE ( 'NONE', *, *, #77, .T. ) ;
#34 = SURFACE_STYLE_FILL_AREA ( #279 ) ;
#35 = FILL_AREA_STYLE_COLOUR ( '', #710 ) ;
#36 = EDGE_CURVE ( 'NONE', #432, #183, #220, .T. ) ;
#37 = DIRECTION ( 'NONE',  ( -0.000000000000000000, 1.000000000000000000, -0.000000000000000000 ) ) ;
#38 = SURFACE_STYLE_FILL_AREA ( #835 ) ;
#39 = ORIENTED_EDGE ( 'NONE', *, *, #36, .T. ) ;
#40 =( LENGTH_UNIT ( ) NAMED_UNIT ( * ) SI_UNIT ( .MILLI., .METRE. ) );
#41 = SURFACE_STYLE_FILL_AREA ( #49 ) ;
#42 = VECTOR ( 'NONE', #910, 1000.000000000000000 ) ;
#43 = MECHANICAL_DESIGN_GEOMETRIC_PRESENTATION_REPRESENTATION (  '', ( #6 ), #915 ) ;
#44 = DIRECTION ( 'NONE',  ( 0.000000000000000000, 0.000000000000000000, 1.000000000000000000 ) ) ;
#45 = CIRCLE ( 'NONE', #856, 0.7700000000000000178 ) ;
#46 = ORIENTED_EDGE ( 'NONE', *, *, #589, .F. ) ;
#47 =( GEOMETRIC_REPRESENTATION_CONTEXT ( 3 ) GLOBAL_UNCERTAINTY_ASSIGNED_CONTEXT ( ( #511 ) ) GLOBAL_UNIT_ASSIGNED_CONTEXT ( ( #590, #243, #794 ) ) REPRESENTATION_CONTEXT ( 'NONE', 'WORKASPACE' ) );
#48 = CARTESIAN_POINT ( 'NONE',  ( 1.560000000000000275, 0.09999999999999982514, -0.8700000000000001066 ) ) ;
#49 = FILL_AREA_STYLE ('',( #35 ) ) ;
#50 = CARTESIAN_POINT ( 'NONE',  ( -2.649999999999999911, 1.090000000000000080, 0.000000000000000000 ) ) ;
#51 = CARTESIAN_POINT ( 'NONE',  ( -2.649999999999999911, 0.009730843988124725577, 0.000000000000000000 ) ) ;
#52 = ORIENTED_EDGE ( 'NONE', *, *, #393, .F. ) ;
#53 = LINE ( 'NONE', #478, #867 ) ;
#54 = CARTESIAN_POINT ( 'NONE',  ( 0.000000000000000000, 0.000000000000000000, 0.000000000000000000 ) ) ;
#55 = CARTESIAN_POINT ( 'NONE',  ( -4.790000000000000036, 1.090000000000000080, 0.000000000000000000 ) ) ;
#56 = DIRECTION ( 'NONE',  ( 1.000000000000000000, -0.000000000000000000, 0.000000000000000000 ) ) ;
#57 = EDGE_CURVE ( 'NONE', #472, #261, #146, .T. ) ;
#58 = CIRCLE ( 'NONE', #284, 0.7700000000000000178 ) ;
#59 = ORIENTED_EDGE ( 'NONE', *, *, #646, .F. ) ;
#60 = FACE_OUTER_BOUND ( 'NONE', #467, .T. ) ;
#61 = VECTOR ( 'NONE', #652, 1000.000000000000000 ) ;
#62 = STYLED_ITEM ( 'NONE', ( #200 ), #859 ) ;
#63 = ORIENTED_EDGE ( 'NONE', *, *, #481, .T. ) ;
#64 = CARTESIAN_POINT ( 'NONE',  ( 0.000000000000000000, 1.090000000000000080, 0.000000000000000000 ) ) ;
#65 = CARTESIAN_POINT ( 'NONE',  ( -4.790000000000000036, 1.090000000000000080, -8.429999999999999716 ) ) ;
#66 = CARTESIAN_POINT ( 'NONE',  ( 1.560000000000000275, 0.9899999999999965494, -0.8700000000000001066 ) ) ;
#67 = ORIENTED_EDGE ( 'NONE', *, *, #77, .F. ) ;
#68 = CYLINDRICAL_SURFACE ( 'NONE', #763, 0.7700000000000000178 ) ;
#69 = FILL_AREA_STYLE_COLOUR ( '', #595 ) ;
#70 = CARTESIAN_POINT ( 'NONE',  ( 2.423982137125102909, 1.089750040203926851, 0.000000000000000000 ) ) ;
#71 = CARTESIAN_POINT ( 'NONE',  ( 1.560000000000000275, 3.594396134800000198, -0.1000000000000000056 ) ) ;
#72 = AXIS2_PLACEMENT_3D ( 'NONE', #433, #919, #706 ) ;
#73 = VECTOR ( 'NONE', #648, 1000.000000000000000 ) ;
#74 =( GEOMETRIC_REPRESENTATION_CONTEXT ( 3 ) GLOBAL_UNCERTAINTY_ASSIGNED_CONTEXT ( ( #10 ) ) GLOBAL_UNIT_ASSIGNED_CONTEXT ( ( #741, #341, #258 ) ) REPRESENTATION_CONTEXT ( 'NONE', 'WORKASPACE' ) );
#75 =( NAMED_UNIT ( * ) PLANE_ANGLE_UNIT ( ) SI_UNIT ( $, .RADIAN. ) );
#76 = LINE ( 'NONE', #798, #85 ) ;
#77 = EDGE_CURVE ( 'NONE', #728, #837, #621, .T. ) ;
#78 = CARTESIAN_POINT ( 'NONE',  ( -4.389999999999999680, 3.594396134800000198, 0.000000000000000000 ) ) ;
#79 = CARTESIAN_POINT ( 'NONE',  ( 0.000000000000000000, 0.000000000000000000, 0.000000000000000000 ) ) ;
#80 = UNCERTAINTY_MEASURE_WITH_UNIT (LENGTH_MEASURE( 1.000000000000000082E-05 ), #190, 'distance_accuracy_value', 'NONE');
#81 = EDGE_LOOP ( 'NONE', ( #400, #100, #364, #156, #681, #307 ) ) ;
#82 = DIRECTION ( 'NONE',  ( 0.000000000000000000, -1.000000000000000000, 0.000000000000000000 ) ) ;
#83 = SURFACE_STYLE_FILL_AREA ( #656 ) ;
#84 = ORIENTED_EDGE ( 'NONE', *, *, #668, .F. ) ;
#85 = VECTOR ( 'NONE', #154, 999.9999999999998863 ) ;
#86 = MECHANICAL_DESIGN_GEOMETRIC_PRESENTATION_REPRESENTATION (  '', ( #486 ), #697 ) ;
#87 = AXIS2_PLACEMENT_3D ( 'NONE', #395, #280, #773 ) ;
#88 = PRESENTATION_STYLE_ASSIGNMENT (( #509 ) ) ;
#89 = CARTESIAN_POINT ( 'NONE',  ( 0.7900376765397981726, 0.09999999999999982514, -0.1076171157118313154 ) ) ;
#90 = PRESENTATION_STYLE_ASSIGNMENT (( #322 ) ) ;
#91 = ORIENTED_EDGE ( 'NONE', *, *, #589, .T. ) ;
#92 = SURFACE_STYLE_FILL_AREA ( #821 ) ;
#93 = FILL_AREA_STYLE ('',( #153 ) ) ;
#94 = CARTESIAN_POINT ( 'NONE',  ( 1.560000000000000275, 0.09999999999999982514, -0.1000000000000000056 ) ) ;
#95 =( NAMED_UNIT ( * ) SI_UNIT ( $, .STERADIAN. ) SOLID_ANGLE_UNIT ( ) );
#96 = EDGE_CURVE ( 'NONE', #198, #143, #418, .T. ) ;
#97 = VERTEX_POINT ( 'NONE', #770 ) ;
#98 = CARTESIAN_POINT ( 'NONE',  ( -3.520000000000000018, 3.594396134800000198, -0.7700000000000000178 ) ) ;
#99 = LINE ( 'NONE', #390, #61 ) ;
#100 = ORIENTED_EDGE ( 'NONE', *, *, #1, .T. ) ;
#101 = LINE ( 'NONE', #98, #777 ) ;
#102 = ADVANCED_FACE ( 'NONE', ( #128 ), #484, .F. ) ;
#103 = COLOUR_RGB ( '',0.8274509803921568096, 0.6666666666666666297, 0.1294117647058823373 ) ;
#104 = CIRCLE ( 'NONE', #288, 0.7700000000000000178 ) ;
#105 = DIRECTION ( 'NONE',  ( 0.000000000000000000, 1.000000000000000000, -0.000000000000000000 ) ) ;
#106 = VERTEX_POINT ( 'NONE', #560 ) ;
#107 = CARTESIAN_POINT ( 'NONE',  ( 0.7900376765397981726, 0.09999999999999982514, -0.1076171157118313154 ) ) ;
#108 = LINE ( 'NONE', #672, #42 ) ;
#109 = CARTESIAN_POINT ( 'NONE',  ( -4.790000000000000036, 0.000000000000000000, 0.000000000000000000 ) ) ;
#110 = ORIENTED_EDGE ( 'NONE', *, *, #600, .F. ) ;
#111 = LINE ( 'NONE', #50, #722 ) ;
#112 = LINE ( 'NONE', #337, #25 ) ;
#113 = ORIENTED_EDGE ( 'NONE', *, *, #294, .F. ) ;
#114 = FACE_OUTER_BOUND ( 'NONE', #129, .T. ) ;
#115 = CARTESIAN_POINT ( 'NONE',  ( 0.000000000000000000, 0.000000000000000000, 0.000000000000000000 ) ) ;
#116 = CARTESIAN_POINT ( 'NONE',  ( -2.641387643826601739, 0.000000000000000000, 0.000000000000000000 ) ) ;
#117 = UNCERTAINTY_MEASURE_WITH_UNIT (LENGTH_MEASURE( 1.000000000000000082E-05 ), #815, 'distance_accuracy_value', 'NONE');
#118 = ADVANCED_FACE ( 'NONE', ( #850 ), #367, .T. ) ;
#119 = ORIENTED_EDGE ( 'NONE', *, *, #57, .F. ) ;
#120 = MECHANICAL_DESIGN_GEOMETRIC_PRESENTATION_REPRESENTATION (  '', ( #135 ), #215 ) ;
#121 = SURFACE_STYLE_USAGE ( .BOTH. , #192 ) ;
#122 =( NAMED_UNIT ( * ) PLANE_ANGLE_UNIT ( ) SI_UNIT ( $, .RADIAN. ) );
#123 = VERTEX_POINT ( 'NONE', #719 ) ;
#124 = ADVANCED_FACE ( 'NONE', ( #377 ), #347, .F. ) ;
#125 = CARTESIAN_POINT ( 'NONE',  ( 0.7073469645238272818, 0.01150294181824322581, 0.000000000000000000 ) ) ;
#126 = PLANE ( 'NONE',  #72 ) ;
#127 = CARTESIAN_POINT ( 'NONE',  ( 2.424233764672482305, 0.000000000000000000, 0.000000000000000000 ) ) ;
#128 = FACE_OUTER_BOUND ( 'NONE', #733, .T. ) ;
#129 = EDGE_LOOP ( 'NONE', ( #286, #311, #188, #616 ) ) ;
#130 =( GEOMETRIC_REPRESENTATION_CONTEXT ( 3 ) GLOBAL_UNCERTAINTY_ASSIGNED_CONTEXT ( ( #117 ) ) GLOBAL_UNIT_ASSIGNED_CONTEXT ( ( #815, #586, #731 ) ) REPRESENTATION_CONTEXT ( 'NONE', 'WORKASPACE' ) );
#131 = DIRECTION ( 'NONE',  ( -0.000000000000000000, 1.000000000000000000, 0.000000000000000000 ) ) ;
#132 = VECTOR ( 'NONE', #537, 1000.000000000000000 ) ;
#133 = VERTEX_POINT ( 'NONE', #244 ) ;
#134 = DIRECTION ( 'NONE',  ( 1.000000000000000000, -0.000000000000000000, 0.000000000000000000 ) ) ;
#135 = STYLED_ITEM ( 'NONE', ( #171 ), #920 ) ;
#136 = EDGE_LOOP ( 'NONE', ( #774, #411, #314, #356, #527, #767, #396 ) ) ;
#137 = EDGE_CURVE ( 'NONE', #174, #911, #299, .T. ) ;
#138 = CARTESIAN_POINT ( 'NONE',  ( 2.392806079074255354, 1.055252318277701384, -0.03067280079080063337 ) ) ;
#139 = CARTESIAN_POINT ( 'NONE',  ( -4.355109411188998081, 0.04915267809925635834, -0.03489058881100110671 ) ) ;
#140 = SURFACE_STYLE_FILL_AREA ( #425 ) ;
#141 = CARTESIAN_POINT ( 'NONE',  ( 4.790000000000000036, 1.090000000000000080, 0.000000000000000000 ) ) ;
#142 = CARTESIAN_POINT ( 'NONE',  ( -4.282452286600658908, 0.1227178569751367077, -0.1075477133993398282 ) ) ;
#143 = VERTEX_POINT ( 'NONE', #89 ) ;
#144 = CARTESIAN_POINT ( 'NONE',  ( 4.790000000000000036, 1.090000000000000080, 0.000000000000000000 ) ) ;
#145 = DIRECTION ( 'NONE',  ( 0.000000000000000000, 0.000000000000000000, 1.000000000000000000 ) ) ;
#146 = LINE ( 'NONE', #693, #419 ) ;
#147 = EDGE_CURVE ( 'NONE', #857, #816, #914, .T. ) ;
#148 = AXIS2_PLACEMENT_3D ( 'NONE', #157, #340, #676 ) ;
#149 = MECHANICAL_DESIGN_GEOMETRIC_PRESENTATION_REPRESENTATION (  '', ( #319 ), #47 ) ;
#150 = CARTESIAN_POINT ( 'NONE',  ( -3.520000000000000018, 0.9927178569751281545, 0.000000000000000000 ) ) ;
#151 = EDGE_CURVE ( 'NONE', #123, #439, #76, .T. ) ;
#152 = ORIENTED_EDGE ( 'NONE', *, *, #626, .T. ) ;
#153 = FILL_AREA_STYLE_COLOUR ( '', #522 ) ;
#154 = DIRECTION ( 'NONE',  ( -0.6627595788049214232, -0.7488322513769843924, -0.000000000000000000 ) ) ;
#155 = DIRECTION ( 'NONE',  ( 0.000000000000000000, -1.000000000000000000, 0.000000000000000000 ) ) ;
#156 = ORIENTED_EDGE ( 'NONE', *, *, #802, .T. ) ;
#157 = CARTESIAN_POINT ( 'NONE',  ( 1.560000000000000275, 1.090000000000000302, -0.1000000000000000056 ) ) ;
#158 = ADVANCED_FACE ( 'NONE', ( #795 ), #514, .T. ) ;
#159 = CARTESIAN_POINT ( 'NONE',  ( -4.282452286600658908, 3.594396134800000198, -0.1075477133993398143 ) ) ;
#160 = SURFACE_SIDE_STYLE ('',( #83 ) ) ;
#161 = VERTEX_POINT ( 'NONE', #809 ) ;
#162 = DIRECTION ( 'NONE',  ( -0.7071067811865462405, 0.000000000000000000, 0.7071067811865489050 ) ) ;
#163 =( GEOMETRIC_REPRESENTATION_CONTEXT ( 3 ) GLOBAL_UNCERTAINTY_ASSIGNED_CONTEXT ( ( #602 ) ) GLOBAL_UNIT_ASSIGNED_CONTEXT ( ( #296, #865, #225 ) ) REPRESENTATION_CONTEXT ( 'NONE', 'WORKASPACE' ) );
#164 = STYLED_ITEM ( 'NONE', ( #438 ), #416 ) ;
#165 = COLOUR_RGB ( '',0.8274509803921568096, 0.6666666666666666297, 0.1294117647058823373 ) ;
#166 = EDGE_CURVE ( 'NONE', #728, #800, #209, .T. ) ;
#167 = CARTESIAN_POINT ( 'NONE',  ( -3.520000000000000018, 0.1227178569751367354, 0.000000000000000000 ) ) ;
#168 = LINE ( 'NONE', #238, #73 ) ;
#169 = EDGE_LOOP ( 'NONE', ( #360, #688, #482, #113 ) ) ;
#170 = CARTESIAN_POINT ( 'NONE',  ( -2.649999999999999911, 3.594396134800000198, 0.000000000000000000 ) ) ;
#171 = PRESENTATION_STYLE_ASSIGNMENT (( #879 ) ) ;
#172 = CYLINDRICAL_SURFACE ( 'NONE', #868, 0.7700000000000000178 ) ;
#173 = EDGE_CURVE ( 'NONE', #811, #921, #758, .T. ) ;
#174 = VERTEX_POINT ( 'NONE', #529 ) ;
#175 = DIRECTION ( 'NONE',  ( -0.6627595788049214232, 0.7488322513769843924, 0.000000000000000000 ) ) ;
#176 = DIRECTION ( 'NONE',  ( 0.000000000000000000, -1.000000000000000000, 0.000000000000000000 ) ) ;
#177 = ORIENTED_EDGE ( 'NONE', *, *, #151, .T. ) ;
#178 = EDGE_CURVE ( 'NONE', #705, #816, #399, .T. ) ;
#179 = DIRECTION ( 'NONE',  ( 0.000000000000000000, -1.000000000000000000, -0.000000000000000000 ) ) ;
#180 = STYLED_ITEM ( 'NONE', ( #302 ), #318 ) ;
#181 = CARTESIAN_POINT ( 'NONE',  ( 0.000000000000000000, 0.000000000000000000, 0.000000000000000000 ) ) ;
#182 = SURFACE_STYLE_USAGE ( .BOTH. , #825 ) ;
#183 = VERTEX_POINT ( 'NONE', #742 ) ;
#184 = CARTESIAN_POINT ( 'NONE',  ( -2.757547713399340683, 0.9672821430248630392, -0.1075477133993398005 ) ) ;
#185 = APPLICATION_CONTEXT ( 'automotive_design' ) ;
#186 =( NAMED_UNIT ( * ) PLANE_ANGLE_UNIT ( ) SI_UNIT ( $, .RADIAN. ) );
#187 = DIRECTION ( 'NONE',  ( 0.000000000000000000, -1.000000000000000000, 0.000000000000000000 ) ) ;
#188 = ORIENTED_EDGE ( 'NONE', *, *, #166, .T. ) ;
#189 = CARTESIAN_POINT ( 'NONE',  ( 0.6957662353275005929, 0.000000000000000000, 0.000000000000000000 ) ) ;
#190 =( LENGTH_UNIT ( ) NAMED_UNIT ( * ) SI_UNIT ( .MILLI., .METRE. ) );
#191 = ORIENTED_EDGE ( 'NONE', *, *, #600, .T. ) ;
#192 = SURFACE_SIDE_STYLE ('',( #34 ) ) ;
#193 = CARTESIAN_POINT ( 'NONE',  ( -2.757547713399340683, 0.9672821430248630392, -0.1075477133993398005 ) ) ;
#194 = MECHANICAL_DESIGN_GEOMETRIC_PRESENTATION_REPRESENTATION (  '', ( #180 ), #824 ) ;
#195 = EDGE_CURVE ( 'NONE', #439, #133, #111, .T. ) ;
#196 = B_SPLINE_CURVE_WITH_KNOTS ( 'NONE', 3,
 ( #447, #737, #305, #664 ),
 .UNSPECIFIED., .F., .F.,
 ( 4, 4 ),
 ( 0.000000000000000000, 0.0001894705423504679080 ),
 .UNSPECIFIED. ) ;
#197 = CARTESIAN_POINT ( 'NONE',  ( 1.560000000000000275, 0.9899999999999965494, -0.1000000000000000056 ) ) ;
#198 = VERTEX_POINT ( 'NONE', #456 ) ;
#199 = SURFACE_STYLE_USAGE ( .BOTH. , #265 ) ;
#200 = PRESENTATION_STYLE_ASSIGNMENT (( #345 ) ) ;
#201 = CARTESIAN_POINT ( 'NONE',  ( 0.7900376765397981726, 3.594396134800000198, -0.1076171157118313154 ) ) ;
#202 = EDGE_CURVE ( 'NONE', #521, #772, #407, .T. ) ;
#203 = ORIENTED_EDGE ( 'NONE', *, *, #748, .T. ) ;
#204 = CARTESIAN_POINT ( 'NONE',  ( -4.282452286600658908, 0.9672821430248630392, -0.1075477133993398282 ) ) ;
#205 = CARTESIAN_POINT ( 'NONE',  ( 0.6996263064065476600, 1.086165512918906284, 0.000000000000000000 ) ) ;
#206 = CARTESIAN_POINT ( 'NONE',  ( 4.790000000000000036, 1.090000000000000080, 0.000000000000000000 ) ) ;
#207 = EDGE_CURVE ( 'NONE', #861, #457, #108, .T. ) ;
#208 = ORIENTED_EDGE ( 'NONE', *, *, #596, .T. ) ;
#209 = CIRCLE ( 'NONE', #900, 0.7700000000000000178 ) ;
#210 = DIRECTION ( 'NONE',  ( 0.000000000000000000, 0.000000000000000000, 1.000000000000000000 ) ) ;
#211 = CONICAL_SURFACE ( 'NONE', #682, 0.7700000000000000178, 0.7244979551194652423 ) ;
#212 = ORIENTED_EDGE ( 'NONE', *, *, #248, .T. ) ;
#213 = DIRECTION ( 'NONE',  ( 0.000000000000000000, -1.000000000000000000, -0.000000000000000000 ) ) ;
#214 = CIRCLE ( 'NONE', #555, 0.7700000000000000178 ) ;
#215 =( GEOMETRIC_REPRESENTATION_CONTEXT ( 3 ) GLOBAL_UNCERTAINTY_ASSIGNED_CONTEXT ( ( #674 ) ) GLOBAL_UNIT_ASSIGNED_CONTEXT ( ( #223, #517, #807 ) ) REPRESENTATION_CONTEXT ( 'NONE', 'WORKASPACE' ) );
#216 = ORIENTED_EDGE ( 'NONE', *, *, #17, .F. ) ;
#217 = CARTESIAN_POINT ( 'NONE',  ( 2.329972617288611492, 0.09999999999999982514, -0.09350626257644431560 ) ) ;
#218 = CARTESIAN_POINT ( 'NONE',  ( 1.560000000000000275, 0.09999999999999982514, -0.1000000000000000056 ) ) ;
#219 = DIRECTION ( 'NONE',  ( 0.000000000000000000, -1.000000000000000000, 0.000000000000000000 ) ) ;
#220 = B_SPLINE_CURVE_WITH_KNOTS ( 'NONE', 3,
 ( #430, #281, #205, #789 ),
 .UNSPECIFIED., .F., .F.,
 ( 4, 4 ),
 ( 0.000000000000000000, 1.632271298504683034E-05 ),
 .UNSPECIFIED. ) ;
#221 = PLANE ( 'NONE',  #651 ) ;
#222 = ORIENTED_EDGE ( 'NONE', *, *, #290, .T. ) ;
#223 =( LENGTH_UNIT ( ) NAMED_UNIT ( * ) SI_UNIT ( .MILLI., .METRE. ) );
#224 = ADVANCED_FACE ( 'NONE', ( #817 ), #211, .F. ) ;
#225 =( NAMED_UNIT ( * ) SI_UNIT ( $, .STERADIAN. ) SOLID_ANGLE_UNIT ( ) );
#226 = UNCERTAINTY_MEASURE_WITH_UNIT (LENGTH_MEASURE( 1.000000000000000082E-05 ), #277, 'distance_accuracy_value', 'NONE');
#227 = ORIENTED_EDGE ( 'NONE', *, *, #17, .T. ) ;
#228 = AXIS2_PLACEMENT_3D ( 'NONE', #253, #686, #751 ) ;
#229 = PRESENTATION_LAYER_ASSIGNMENT (  '', '', ( #62 ) ) ;
#230 = DIRECTION ( 'NONE',  ( -0.000000000000000000, 1.000000000000000000, 0.000000000000000000 ) ) ;
#231 = FILL_AREA_STYLE ('',( #313 ) ) ;
#232 = ORIENTED_EDGE ( 'NONE', *, *, #233, .F. ) ;
#233 = EDGE_CURVE ( 'NONE', #97, #857, #571, .T. ) ;
#234 = DIRECTION ( 'NONE',  ( 0.7071067811865432429, 0.000000000000000000, -0.7071067811865519026 ) ) ;
#235 = ORIENTED_EDGE ( 'NONE', *, *, #574, .T. ) ;
#236 = ADVANCED_FACE ( 'NONE', ( #573 ), #863, .F. ) ;
#237 = CARTESIAN_POINT ( 'NONE',  ( 2.424233764672501401, 1.090000000000000080, 0.000000000000000000 ) ) ;
#238 = CARTESIAN_POINT ( 'NONE',  ( -4.790000000000000036, 1.090000000000000080, 0.000000000000000000 ) ) ;
#239 = VECTOR ( 'NONE', #409, 1000.000000000000000 ) ;
#240 = ORIENTED_EDGE ( 'NONE', *, *, #646, .T. ) ;
#241 = CLOSED_SHELL ( 'NONE', ( #124, #224, #375, #416, #236, #896, #771, #833, #492, #845, #275, #536, #102, #118, #920, #158, #325, #757, #859, #927, #318, #344 ) ) ;
#242 = AXIS2_PLACEMENT_3D ( 'NONE', #730, #408, #677 ) ;
#243 =( NAMED_UNIT ( * ) PLANE_ANGLE_UNIT ( ) SI_UNIT ( $, .RADIAN. ) );
#244 = CARTESIAN_POINT ( 'NONE',  ( -2.649999999999999911, 0.009730843988124725577, 0.000000000000000000 ) ) ;
#245 = VERTEX_POINT ( 'NONE', #501 ) ;
#246 = PLANE ( 'NONE',  #591 ) ;
#247 = DIRECTION ( 'NONE',  ( 0.7929503524207057730, 0.000000000000000000, 0.6092862534112176709 ) ) ;
#248 = EDGE_CURVE ( 'NONE', #842, #161, #791, .T. ) ;
#249 = DIRECTION ( 'NONE',  ( -0.000000000000000000, 1.000000000000000000, 0.000000000000000000 ) ) ;
#250 = VERTEX_POINT ( 'NONE', #839 ) ;
#251 = DIRECTION ( 'NONE',  ( 0.000000000000000000, 0.000000000000000000, 1.000000000000000000 ) ) ;
#252 = B_SPLINE_CURVE_WITH_KNOTS ( 'NONE', 3,
 ( #702, #629, #282, #422 ),
 .UNSPECIFIED., .F., .F.,
 ( 4, 4 ),
 ( 0.000000000000000000, 1.064033317305120056E-06 ),
 .UNSPECIFIED. ) ;
#253 = CARTESIAN_POINT ( 'NONE',  ( -3.520000000000000018, 0.000000000000000000, 0.000000000000000000 ) ) ;
#254 = UNCERTAINTY_MEASURE_WITH_UNIT (LENGTH_MEASURE( 1.000000000000000082E-05 ), #549, 'distance_accuracy_value', 'NONE');
#255 = ORIENTED_EDGE ( 'NONE', *, *, #30, .F. ) ;
#256 = COLOUR_RGB ( '',0.8274509803921568096, 0.6666666666666666297, 0.1294117647058823373 ) ;
#257 = MECHANICAL_DESIGN_GEOMETRIC_PRESENTATION_REPRESENTATION (  '', ( #487 ), #350 ) ;
#258 =( NAMED_UNIT ( * ) SI_UNIT ( $, .STERADIAN. ) SOLID_ANGLE_UNIT ( ) );
#259 = AXIS2_PLACEMENT_3D ( 'NONE', #269, #822, #908 ) ;
#260 = FILL_AREA_STYLE ('',( #895 ) ) ;
#261 = VERTEX_POINT ( 'NONE', #368 ) ;
#262 = APPLICATION_PROTOCOL_DEFINITION ( 'draft international standard', 'automotive_design', 1998, #185 ) ;
#263 = DIRECTION ( 'NONE',  ( 1.000000000000000000, 0.000000000000000000, 0.000000000000000000 ) ) ;
#264 = VERTEX_POINT ( 'NONE', #193 ) ;
#265 = SURFACE_SIDE_STYLE ('',( #907 ) ) ;
#266 = B_SPLINE_CURVE_WITH_KNOTS ( 'NONE', 3,
 ( #847, #461, #747, #107 ),
 .UNSPECIFIED., .F., .F.,
 ( 4, 4 ),
 ( 4.190572618694658349E-20, 0.0001620213774619482666 ),
 .UNSPECIFIED. ) ;
#267 = EDGE_CURVE ( 'NONE', #457, #829, #619, .T. ) ;
#268 = CARTESIAN_POINT ( 'NONE',  ( 2.329972617288611492, 3.594396134800000198, -0.09350626257644431560 ) ) ;
#269 = CARTESIAN_POINT ( 'NONE',  ( 0.000000000000000000, 0.000000000000000000, 0.000000000000000000 ) ) ;
#270 = SURFACE_STYLE_USAGE ( .BOTH. , #544 ) ;
#271 = CARTESIAN_POINT ( 'NONE',  ( 2.361703309925900385, 0.06800283734488303533, -0.06177556993915535311 ) ) ;
#272 = ORIENTED_EDGE ( 'NONE', *, *, #574, .F. ) ;
#273 = STYLED_ITEM ( 'NONE', ( #726 ), #124 ) ;
#274 = DIRECTION ( 'NONE',  ( -0.000000000000000000, -0.000000000000000000, -1.000000000000000000 ) ) ;
#275 = ADVANCED_FACE ( 'NONE', ( #768 ), #126, .F. ) ;
#276 = COLOUR_RGB ( '',0.8274509803921568096, 0.6666666666666666297, 0.1294117647058823373 ) ;
#277 =( LENGTH_UNIT ( ) NAMED_UNIT ( * ) SI_UNIT ( .MILLI., .METRE. ) );
#278 = DIRECTION ( 'NONE',  ( 0.000000000000000000, -0.7488322513769831712, -0.6627595788049227554 ) ) ;
#279 = FILL_AREA_STYLE ('',( #721 ) ) ;
#280 = DIRECTION ( 'NONE',  ( -0.000000000000000000, 1.000000000000000000, -0.000000000000000000 ) ) ;
#281 = CARTESIAN_POINT ( 'NONE',  ( 0.7034865471598433784, 1.082331196635970771, 0.000000000000000000 ) ) ;
#282 = CARTESIAN_POINT ( 'NONE',  ( 2.423982137125095804, 0.0002499597960784390193, 0.000000000000000000 ) ) ;
#283 = ORIENTED_EDGE ( 'NONE', *, *, #267, .F. ) ;
#284 = AXIS2_PLACEMENT_3D ( 'NONE', #218, #557, #641 ) ;
#285 = VECTOR ( 'NONE', #667, 1000.000000000000000 ) ;
#286 = ORIENTED_EDGE ( 'NONE', *, *, #739, .T. ) ;
#287 = DIRECTION ( 'NONE',  ( 0.000000000000000000, 0.000000000000000000, -1.000000000000000000 ) ) ;
#288 = AXIS2_PLACEMENT_3D ( 'NONE', #197, #342, #44 ) ;
#289 = ORIENTED_EDGE ( 'NONE', *, *, #267, .T. ) ;
#290 = EDGE_CURVE ( 'NONE', #261, #123, #363, .T. ) ;
#291 = CARTESIAN_POINT ( 'NONE',  ( 1.560000000000000275, 0.09999999999999982514, -0.1000000000000000056 ) ) ;
#292 = DIRECTION ( 'NONE',  ( -0.000000000000000000, -1.000000000000000000, 0.000000000000000000 ) ) ;
#293 = DIRECTION ( 'NONE',  ( 0.000000000000000000, -0.7071067811865441310, -0.7071067811865510144 ) ) ;
#294 = EDGE_CURVE ( 'NONE', #512, #432, #381, .T. ) ;
#295 = LINE ( 'NONE', #159, #625 ) ;
#296 =( LENGTH_UNIT ( ) NAMED_UNIT ( * ) SI_UNIT ( .MILLI., .METRE. ) );
#297 = ORIENTED_EDGE ( 'NONE', *, *, #233, .T. ) ;
#298 = EDGE_CURVE ( 'NONE', #546, #261, #451, .T. ) ;
#299 = LINE ( 'NONE', #525, #334 ) ;
#300 = ORIENTED_EDGE ( 'NONE', *, *, #626, .F. ) ;
#301 = AXIS2_PLACEMENT_3D ( 'NONE', #830, #249, #413 ) ;
#302 = PRESENTATION_STYLE_ASSIGNMENT (( #4 ) ) ;
#303 = DIRECTION ( 'NONE',  ( 0.000000000000000000, -0.000000000000000000, 1.000000000000000000 ) ) ;
#304 = FILL_AREA_STYLE ('',( #713 ) ) ;
#305 = CARTESIAN_POINT ( 'NONE',  ( -4.319389975865013831, 1.002778644309669787, -0.07061002413498571051 ) ) ;
#306 = EDGE_CURVE ( 'NONE', #133, #705, #29, .T. ) ;
#307 = ORIENTED_EDGE ( 'NONE', *, *, #657, .T. ) ;
#308 = SURFACE_STYLE_FILL_AREA ( #516 ) ;
#309 = SURFACE_STYLE_FILL_AREA ( #304 ) ;
#310 = CARTESIAN_POINT ( 'NONE',  ( 1.560000000000000275, 0.09999999999999982514, -0.1000000000000000056 ) ) ;
#311 = ORIENTED_EDGE ( 'NONE', *, *, #339, .T. ) ;
#312 = SURFACE_SIDE_STYLE ('',( #309 ) ) ;
#313 = FILL_AREA_STYLE_COLOUR ( '', #165 ) ;
#314 = ORIENTED_EDGE ( 'NONE', *, *, #739, .F. ) ;
#315 =( NAMED_UNIT ( * ) PLANE_ANGLE_UNIT ( ) SI_UNIT ( $, .RADIAN. ) );
#316 = VECTOR ( 'NONE', #480, 1000.000000000000000 ) ;
#317 = AXIS2_PLACEMENT_3D ( 'NONE', #592, #187, #476 ) ;
#318 = ADVANCED_FACE ( 'NONE', ( #729 ), #812, .T. ) ;
#319 = STYLED_ITEM ( 'NONE', ( #88 ), #896 ) ;
#320 = CARTESIAN_POINT ( 'NONE',  ( 0.7073469645238272818, 3.594396134800000198, 0.000000000000000000 ) ) ;
#321 =( NAMED_UNIT ( * ) PLANE_ANGLE_UNIT ( ) SI_UNIT ( $, .RADIAN. ) );
#322 = SURFACE_STYLE_USAGE ( .BOTH. , #732 ) ;
#323 = ORIENTED_EDGE ( 'NONE', *, *, #361, .T. ) ;
#324 = DIRECTION ( 'NONE',  ( 0.6627595788049227554, -0.7488322513769831712, 0.000000000000000000 ) ) ;
#325 = ADVANCED_FACE ( 'NONE', ( #883 ), #246, .F. ) ;
#326 = SURFACE_STYLE_USAGE ( .BOTH. , #541 ) ;
#327 = ORIENTED_EDGE ( 'NONE', *, *, #872, .F. ) ;
#328 = DIRECTION ( 'NONE',  ( -0.000000000000000000, 0.000000000000000000, -1.000000000000000000 ) ) ;
#329 = CARTESIAN_POINT ( 'NONE',  ( 2.423478879865056168, 1.089250122791482145, 0.000000000000000000 ) ) ;
#330 = FILL_AREA_STYLE ('',( #736 ) ) ;
#331 = UNCERTAINTY_MEASURE_WITH_UNIT (LENGTH_MEASURE( 1.000000000000000082E-05 ), #473, 'distance_accuracy_value', 'NONE');
#332 = ORIENTED_EDGE ( 'NONE', *, *, #147, .T. ) ;
#333 = CARTESIAN_POINT ( 'NONE',  ( 0.6996263064065437742, 0.003834487081086165698, 0.000000000000000000 ) ) ;
#334 = VECTOR ( 'NONE', #437, 1000.000000000000000 ) ;
#335 = AXIS2_PLACEMENT_3D ( 'NONE', #849, #131, #844 ) ;
#336 = PRESENTATION_STYLE_ASSIGNMENT (( #548 ) ) ;
#337 = CARTESIAN_POINT ( 'NONE',  ( 4.790000000000000036, 1.090000000000000080, 0.000000000000000000 ) ) ;
#338 = ORIENTED_EDGE ( 'NONE', *, *, #173, .F. ) ;
#339 = EDGE_CURVE ( 'NONE', #521, #728, #101, .T. ) ;
#340 = DIRECTION ( 'NONE',  ( -0.000000000000000000, 1.000000000000000000, -0.000000000000000000 ) ) ;
#341 =( NAMED_UNIT ( * ) PLANE_ANGLE_UNIT ( ) SI_UNIT ( $, .RADIAN. ) );
#342 = DIRECTION ( 'NONE',  ( -0.000000000000000000, 1.000000000000000000, -0.000000000000000000 ) ) ;
#343 = ORIENTED_EDGE ( 'NONE', *, *, #1, .F. ) ;
#344 = ADVANCED_FACE ( 'NONE', ( #801 ), #855, .F. ) ;
#345 = SURFACE_STYLE_USAGE ( .BOTH. , #497 ) ;
#346 = EDGE_LOOP ( 'NONE', ( #805, #327, #862, #552 ) ) ;
#347 = CONICAL_SURFACE ( 'NONE', #577, 0.7700000000000000178, 0.7853981633974531640 ) ;
#348 = EDGE_CURVE ( 'NONE', #816, #512, #679, .T. ) ;
#349 = AXIS2_PLACEMENT_3D ( 'NONE', #392, #179, #251 ) ;
#350 =( GEOMETRIC_REPRESENTATION_CONTEXT ( 3 ) GLOBAL_UNCERTAINTY_ASSIGNED_CONTEXT ( ( #766 ) ) GLOBAL_UNIT_ASSIGNED_CONTEXT ( ( #505, #526, #95 ) ) REPRESENTATION_CONTEXT ( 'NONE', 'WORKASPACE' ) );
#351 =( LENGTH_UNIT ( ) NAMED_UNIT ( * ) SI_UNIT ( .MILLI., .METRE. ) );
#352 =( GEOMETRIC_REPRESENTATION_CONTEXT ( 3 ) GLOBAL_UNCERTAINTY_ASSIGNED_CONTEXT ( ( #519 ) ) GLOBAL_UNIT_ASSIGNED_CONTEXT ( ( #351, #75, #718 ) ) REPRESENTATION_CONTEXT ( 'NONE', 'WORKASPACE' ) );
#353 = ORIENTED_EDGE ( 'NONE', *, *, #689, .F. ) ;
#354 =( NAMED_UNIT ( * ) SI_UNIT ( $, .STERADIAN. ) SOLID_ANGLE_UNIT ( ) );
#355 = FACE_OUTER_BOUND ( 'NONE', #720, .T. ) ;
#356 = ORIENTED_EDGE ( 'NONE', *, *, #369, .T. ) ;
#357 = CARTESIAN_POINT ( 'NONE',  ( -4.790000000000000036, 1.090000000000000080, 0.000000000000000000 ) ) ;
#358 = B_SPLINE_CURVE_WITH_KNOTS ( 'NONE', 3,
 ( #493, #139, #784, #142 ),
 .UNSPECIFIED., .F., .F.,
 ( 4, 4 ),
 ( 2.777301906699327116E-20, 0.0001894705423504676911 ),
 .UNSPECIFIED. ) ;
#359 = CARTESIAN_POINT ( 'NONE',  ( -3.520000000000000018, 0.000000000000000000, -0.8786123561733980569 ) ) ;
#360 = ORIENTED_EDGE ( 'NONE', *, *, #393, .T. ) ;
#361 = EDGE_CURVE ( 'NONE', #460, #97, #53, .T. ) ;
#362 = CARTESIAN_POINT ( 'NONE',  ( -2.757547713399340683, 3.594396134800000198, -0.1075477133993398143 ) ) ;
#363 = CIRCLE ( 'NONE', #349, 0.8786123561733980569 ) ;
#364 = ORIENTED_EDGE ( 'NONE', *, *, #561, .T. ) ;
#365 = LINE ( 'NONE', #931, #843 ) ;
#366 = ORIENTED_EDGE ( 'NONE', *, *, #561, .F. ) ;
#367 = PLANE ( 'NONE',  #828 ) ;
#368 = CARTESIAN_POINT ( 'NONE',  ( -4.398612356173397409, 1.090000000000000080, 0.000000000000000000 ) ) ;
#369 = EDGE_CURVE ( 'NONE', #264, #439, #878, .T. ) ;
#370 = SURFACE_STYLE_FILL_AREA ( #93 ) ;
#371 = DIRECTION ( 'NONE',  ( 0.000000000000000000, -1.000000000000000000, 0.000000000000000000 ) ) ;
#372 = DIRECTION ( 'NONE',  ( 1.000000000000000000, 0.000000000000000000, 0.000000000000000000 ) ) ;
#373 = ORIENTED_EDGE ( 'NONE', *, *, #913, .F. ) ;
#374 = DIRECTION ( 'NONE',  ( 0.000000000000000000, -1.000000000000000000, 0.000000000000000000 ) ) ;
#375 = ADVANCED_FACE ( 'NONE', ( #114 ), #622, .F. ) ;
#376 = CARTESIAN_POINT ( 'NONE',  ( -4.790000000000000036, 0.000000000000000000, -8.429999999999999716 ) ) ;
#377 = FACE_OUTER_BOUND ( 'NONE', #414, .T. ) ;
#378 = CARTESIAN_POINT ( 'NONE',  ( 0.7073469645238272818, 0.01150294181824322581, 0.000000000000000000 ) ) ;
#379 = VECTOR ( 'NONE', #912, 1000.000000000000000 ) ;
#380 = ORIENTED_EDGE ( 'NONE', *, *, #348, .T. ) ;
#381 = LINE ( 'NONE', #455, #285 ) ;
#382 = DIRECTION ( 'NONE',  ( 0.000000000000000000, -1.000000000000000000, 0.000000000000000000 ) ) ;
#383 = EDGE_LOOP ( 'NONE', ( #232, #21, #52, #866, #424 ) ) ;
#384 = PRESENTATION_STYLE_ASSIGNMENT (( #716 ) ) ;
#385 = LINE ( 'NONE', #19, #581 ) ;
#386 = CARTESIAN_POINT ( 'NONE',  ( 0.000000000000000000, 1.090000000000000080, 0.000000000000000000 ) ) ;
#387 = DIRECTION ( 'NONE',  ( 0.000000000000000000, 0.000000000000000000, -1.000000000000000000 ) ) ;
#388 = ORIENTED_EDGE ( 'NONE', *, *, #195, .F. ) ;
#389 = DIRECTION ( 'NONE',  ( 0.000000000000000000, -1.000000000000000000, 0.000000000000000000 ) ) ;
#390 = CARTESIAN_POINT ( 'NONE',  ( 4.790000000000000036, 1.090000000000000080, -8.429999999999999716 ) ) ;
#391 = ORIENTED_EDGE ( 'NONE', *, *, #481, .F. ) ;
#392 = CARTESIAN_POINT ( 'NONE',  ( -3.520000000000000018, 1.090000000000000080, 0.000000000000000000 ) ) ;
#393 = EDGE_CURVE ( 'NONE', #512, #143, #266, .T. ) ;
#394 = CONICAL_SURFACE ( 'NONE', #242, 0.7700000000000000178, 0.7244979551194652423 ) ;
#395 = CARTESIAN_POINT ( 'NONE',  ( -3.520000000000000018, 1.090000000000000302, 0.000000000000000000 ) ) ;
#396 = ORIENTED_EDGE ( 'NONE', *, *, #298, .F. ) ;
#397 = LINE ( 'NONE', #412, #565 ) ;
#398 = EDGE_CURVE ( 'NONE', #921, #174, #397, .T. ) ;
#399 = LINE ( 'NONE', #115, #485 ) ;
#400 = ORIENTED_EDGE ( 'NONE', *, *, #207, .F. ) ;
#401 = SURFACE_SIDE_STYLE ('',( #41 ) ) ;
#402 = EDGE_CURVE ( 'NONE', #245, #546, #604, .T. ) ;
#403 = PRODUCT ( 'ANT-DB1-NSP250-T', 'ANT-DB1-NSP250-T', '', ( #528 ) ) ;
#404 = CARTESIAN_POINT ( 'NONE',  ( -2.757547713399340683, 0.1227178569751367077, -0.1075477133993398005 ) ) ;
#405 = EDGE_LOOP ( 'NONE', ( #283, #906, #449, #820 ) ) ;
#406 =( NAMED_UNIT ( * ) PLANE_ANGLE_UNIT ( ) SI_UNIT ( $, .RADIAN. ) );
#407 = CIRCLE ( 'NONE', #445, 0.7700000000000000178 ) ;
#408 = DIRECTION ( 'NONE',  ( 0.000000000000000000, -1.000000000000000000, 0.000000000000000000 ) ) ;
#409 = DIRECTION ( 'NONE',  ( 1.000000000000000000, 0.000000000000000000, 0.000000000000000000 ) ) ;
#410 = DIRECTION ( 'NONE',  ( -0.000000000000000000, 1.000000000000000000, -0.000000000000000000 ) ) ;
#411 = ORIENTED_EDGE ( 'NONE', *, *, #202, .F. ) ;
#412 = CARTESIAN_POINT ( 'NONE',  ( 4.790000000000000036, 0.000000000000000000, 0.000000000000000000 ) ) ;
#413 = DIRECTION ( 'NONE',  ( 0.000000000000000000, 0.000000000000000000, 1.000000000000000000 ) ) ;
#414 = EDGE_LOOP ( 'NONE', ( #216, #297, #470, #796, #882 ) ) ;
#415 = DIRECTION ( 'NONE',  ( 0.000000000000000000, -1.000000000000000000, 0.000000000000000000 ) ) ;
#416 = ADVANCED_FACE ( 'NONE', ( #60 ), #68, .F. ) ;
#417 = CARTESIAN_POINT ( 'NONE',  ( 2.329972617288611492, 0.9899999999999965494, -0.09350626257644431560 ) ) ;
#418 = LINE ( 'NONE', #201, #316 ) ;
#419 = VECTOR ( 'NONE', #56, 1000.000000000000000 ) ;
#420 = COLOUR_RGB ( '',0.8274509803921568096, 0.6666666666666666297, 0.1294117647058823373 ) ;
#421 = VECTOR ( 'NONE', #469, 1000.000000000000000 ) ;
#422 = CARTESIAN_POINT ( 'NONE',  ( 2.424233764672482305, 0.000000000000000000, 0.000000000000000000 ) ) ;
#423 = MECHANICAL_DESIGN_GEOMETRIC_PRESENTATION_REPRESENTATION (  '', ( #62 ), #352 ) ;
#424 = ORIENTED_EDGE ( 'NONE', *, *, #147, .F. ) ;
#425 = FILL_AREA_STYLE ('',( #858 ) ) ;
#426 = CARTESIAN_POINT ( 'NONE',  ( 4.790000000000000036, 1.090000000000000080, -8.429999999999999716 ) ) ;
#427 = ORIENTED_EDGE ( 'NONE', *, *, #306, .F. ) ;
#428 = DIRECTION ( 'NONE',  ( -1.000000000000000000, 0.000000000000000000, 0.000000000000000000 ) ) ;
#429 = EDGE_CURVE ( 'NONE', #123, #183, #365, .T. ) ;
#430 = CARTESIAN_POINT ( 'NONE',  ( 0.7073469645238272818, 1.078497058181754786, 0.000000000000000000 ) ) ;
#431 = SURFACE_SIDE_STYLE ('',( #140 ) ) ;
#432 = VERTEX_POINT ( 'NONE', #851 ) ;
#433 = CARTESIAN_POINT ( 'NONE',  ( 0.000000000000000000, 1.090000000000000080, 0.000000000000000000 ) ) ;
#434 = PRESENTATION_LAYER_ASSIGNMENT (  '', '', ( #180 ) ) ;
#435 = CARTESIAN_POINT ( 'NONE',  ( 1.560000000000000275, 0.000000000000000000, -0.9700000000000009726 ) ) ;
#436 = CIRCLE ( 'NONE', #301, 0.8786123561733985010 ) ;
#437 = DIRECTION ( 'NONE',  ( -1.000000000000000000, -0.000000000000000000, -0.000000000000000000 ) ) ;
#438 = PRESENTATION_STYLE_ASSIGNMENT (( #775 ) ) ;
#439 = VERTEX_POINT ( 'NONE', #701 ) ;
#440 = DIRECTION ( 'NONE',  ( 0.000000000000000000, -1.000000000000000000, 0.000000000000000000 ) ) ;
#441 = PRODUCT_RELATED_PRODUCT_CATEGORY ( 'part', '', ( #403 ) ) ;
#442 = FILL_AREA_STYLE_COLOUR ( '', #103 ) ;
#443 = ORIENTED_EDGE ( 'NONE', *, *, #36, .F. ) ;
#444 = FILL_AREA_STYLE_COLOUR ( '', #806 ) ;
#445 = AXIS2_PLACEMENT_3D ( 'NONE', #754, #37, #685 ) ;
#446 = DIRECTION ( 'NONE',  ( 0.000000000000000000, -1.000000000000000000, 0.000000000000000000 ) ) ;
#447 = CARTESIAN_POINT ( 'NONE',  ( -4.389999999999999680, 1.080269156011874898, 0.000000000000000000 ) ) ;
#448 = VECTOR ( 'NONE', #324, 1000.000000000000000 ) ;
#449 = ORIENTED_EDGE ( 'NONE', *, *, #398, .T. ) ;
#450 = MECHANICAL_DESIGN_GEOMETRIC_PRESENTATION_REPRESENTATION (  '', ( #725 ), #504 ) ;
#451 = LINE ( 'NONE', #532, #538 ) ;
#452 = VECTOR ( 'NONE', #780, 1000.000000000000000 ) ;
#453 = FILL_AREA_STYLE ('',( #803 ) ) ;
#454 = ORIENTED_EDGE ( 'NONE', *, *, #195, .T. ) ;
#455 = CARTESIAN_POINT ( 'NONE',  ( 0.7073469645238272818, 1.090000000000000080, 0.000000000000000000 ) ) ;
#456 = CARTESIAN_POINT ( 'NONE',  ( 0.7900376765397981726, 0.9899999999999965494, -0.1076171157118313154 ) ) ;
#457 = VERTEX_POINT ( 'NONE', #206 ) ;
#458 = CARTESIAN_POINT ( 'NONE',  ( -3.520000000000000018, 0.9927178569751281545, 0.000000000000000000 ) ) ;
#459 = PRESENTATION_LAYER_ASSIGNMENT (  '', '', ( #635 ) ) ;
#460 = VERTEX_POINT ( 'NONE', #66 ) ;
#461 = CARTESIAN_POINT ( 'NONE',  ( 0.7343360604574203920, 0.04239973638447814414, -0.03512472669823216154 ) ) ;
#462 = PRESENTATION_LAYER_ASSIGNMENT (  '', '', ( #792 ) ) ;
#463 =( GEOMETRIC_REPRESENTATION_CONTEXT ( 3 ) GLOBAL_UNCERTAINTY_ASSIGNED_CONTEXT ( ( #80 ) ) GLOBAL_UNIT_ASSIGNED_CONTEXT ( ( #190, #122, #760 ) ) REPRESENTATION_CONTEXT ( 'NONE', 'WORKASPACE' ) );
#464 = AXIS2_PLACEMENT_3D ( 'NONE', #141, #428, #145 ) ;
#465 = PRESENTATION_STYLE_ASSIGNMENT (( #182 ) ) ;
#466 = UNCERTAINTY_MEASURE_WITH_UNIT (LENGTH_MEASURE( 1.000000000000000082E-05 ), #40, 'distance_accuracy_value', 'NONE');
#467 = EDGE_LOOP ( 'NONE', ( #852, #323, #227, #212 ) ) ;
#468 = PRESENTATION_STYLE_ASSIGNMENT (( #199 ) ) ;
#469 = DIRECTION ( 'NONE',  ( -0.000000000000000000, -0.000000000000000000, -1.000000000000000000 ) ) ;
#470 = ORIENTED_EDGE ( 'NONE', *, *, #788, .F. ) ;
#471 = FILL_AREA_STYLE_COLOUR ( '', #420 ) ;
#472 = VERTEX_POINT ( 'NONE', #357 ) ;
#473 =( LENGTH_UNIT ( ) NAMED_UNIT ( * ) SI_UNIT ( .MILLI., .METRE. ) );
#474 =( GEOMETRIC_REPRESENTATION_CONTEXT ( 3 ) GLOBAL_UNCERTAINTY_ASSIGNED_CONTEXT ( ( #254 ) ) GLOBAL_UNIT_ASSIGNED_CONTEXT ( ( #549, #321, #891 ) ) REPRESENTATION_CONTEXT ( 'NONE', 'WORKASPACE' ) );
#475 = VECTOR ( 'NONE', #880, 1000.000000000000000 ) ;
#476 = DIRECTION ( 'NONE',  ( 1.126443815569355154E-15, 0.000000000000000000, 1.000000000000000000 ) ) ;
#477 = ORIENTED_EDGE ( 'NONE', *, *, #166, .F. ) ;
#478 = CARTESIAN_POINT ( 'NONE',  ( 1.560000000000000275, 3.594396134800000198, -0.8700000000000001066 ) ) ;
#479 = DIRECTION ( 'NONE',  ( -0.000000000000000000, 1.000000000000000000, 0.000000000000000000 ) ) ;
#480 = DIRECTION ( 'NONE',  ( 0.000000000000000000, -1.000000000000000000, 0.000000000000000000 ) ) ;
#481 = EDGE_CURVE ( 'NONE', #183, #861, #566, .T. ) ;
#482 = ORIENTED_EDGE ( 'NONE', *, *, #748, .F. ) ;
#483 = DIRECTION ( 'NONE',  ( -1.000000000000000000, 0.000000000000000000, -0.000000000000000000 ) ) ;
#484 = PLANE ( 'NONE',  #902 ) ;
#485 = VECTOR ( 'NONE', #263, 1000.000000000000000 ) ;
#486 = STYLED_ITEM ( 'NONE', ( #384 ), #325 ) ;
#487 = STYLED_ITEM ( 'NONE', ( #90 ), #536 ) ;
#488 =( NAMED_UNIT ( * ) SI_UNIT ( $, .STERADIAN. ) SOLID_ANGLE_UNIT ( ) );
#489 = AXIS2_PLACEMENT_3D ( 'NONE', #320, #247, #176 ) ;
#490 = CARTESIAN_POINT ( 'NONE',  ( 2.423730508856579036, 1.089500081133787823, 0.000000000000000000 ) ) ;
#491 = DIRECTION ( 'NONE',  ( 0.000000000000000000, 0.000000000000000000, 1.000000000000000000 ) ) ;
#492 = ADVANCED_FACE ( 'NONE', ( #782 ), #634, .T. ) ;
#493 = CARTESIAN_POINT ( 'NONE',  ( -4.389999999999999680, 0.009730843988125376098, 0.000000000000000000 ) ) ;
#494 =( LENGTH_UNIT ( ) NAMED_UNIT ( * ) SI_UNIT ( .MILLI., .METRE. ) );
#495 = EDGE_LOOP ( 'NONE', ( #658, #11, #925, #613 ) ) ;
#496 = DIRECTION ( 'NONE',  ( 0.000000000000000000, 0.000000000000000000, -1.000000000000000000 ) ) ;
#497 = SURFACE_SIDE_STYLE ('',( #627 ) ) ;
#498 = EDGE_CURVE ( 'NONE', #829, #174, #99, .T. ) ;
#499 = ORIENTED_EDGE ( 'NONE', *, *, #643, .T. ) ;
#500 = DIRECTION ( 'NONE',  ( 0.000000000000000000, 0.000000000000000000, -1.000000000000000000 ) ) ;
#501 = CARTESIAN_POINT ( 'NONE',  ( -4.389999999999999680, 0.009730843988125376098, 0.000000000000000000 ) ) ;
#502 = AXIS2_PLACEMENT_3D ( 'NONE', #580, #711, #871 ) ;
#503 = AXIS2_PLACEMENT_3D ( 'NONE', #558, #547, #838 ) ;
#504 =( GEOMETRIC_REPRESENTATION_CONTEXT ( 3 ) GLOBAL_UNCERTAINTY_ASSIGNED_CONTEXT ( ( #226 ) ) GLOBAL_UNIT_ASSIGNED_CONTEXT ( ( #277, #924, #488 ) ) REPRESENTATION_CONTEXT ( 'NONE', 'WORKASPACE' ) );
#505 =( LENGTH_UNIT ( ) NAMED_UNIT ( * ) SI_UNIT ( .MILLI., .METRE. ) );
#506 = EDGE_CURVE ( 'NONE', #546, #772, #196, .T. ) ;
#507 = CONICAL_SURFACE ( 'NONE', #869, 0.7700000000000000178, 0.7853981633974531640 ) ;
#508 = ORIENTED_EDGE ( 'NONE', *, *, #398, .F. ) ;
#509 = SURFACE_STYLE_USAGE ( .BOTH. , #578 ) ;
#510 = DIRECTION ( 'NONE',  ( 8.448328616770164639E-16, 0.000000000000000000, 1.000000000000000000 ) ) ;
#511 = UNCERTAINTY_MEASURE_WITH_UNIT (LENGTH_MEASURE( 1.000000000000000082E-05 ), #590, 'distance_accuracy_value', 'NONE');
#512 = VERTEX_POINT ( 'NONE', #378 ) ;
#513 = DIRECTION ( 'NONE',  ( 0.000000000000000000, -1.000000000000000000, 0.000000000000000000 ) ) ;
#514 = PLANE ( 'NONE',  #534 ) ;
#515 = ORIENTED_EDGE ( 'NONE', *, *, #23, .F. ) ;
#516 = FILL_AREA_STYLE ('',( #599 ) ) ;
#517 =( NAMED_UNIT ( * ) PLANE_ANGLE_UNIT ( ) SI_UNIT ( $, .RADIAN. ) );
#518 = CARTESIAN_POINT ( 'NONE',  ( 0.000000000000000000, 1.090000000000000080, -8.429999999999999716 ) ) ;
#519 = UNCERTAINTY_MEASURE_WITH_UNIT (LENGTH_MEASURE( 1.000000000000000082E-05 ), #351, 'distance_accuracy_value', 'NONE');
#520 =( GEOMETRIC_REPRESENTATION_CONTEXT ( 3 ) GLOBAL_UNCERTAINTY_ASSIGNED_CONTEXT ( ( #466 ) ) GLOBAL_UNIT_ASSIGNED_CONTEXT ( ( #40, #406, #671 ) ) REPRESENTATION_CONTEXT ( 'NONE', 'WORKASPACE' ) );
#521 = VERTEX_POINT ( 'NONE', #9 ) ;
#522 = COLOUR_RGB ( '',0.8274509803921568096, 0.6666666666666666297, 0.1294117647058823373 ) ;
#523 = PRODUCT_DEFINITION ( 'UNKNOWN', '', #779, #542 ) ;
#524 = DIRECTION ( 'NONE',  ( 0.000000000000000000, 0.000000000000000000, -1.000000000000000000 ) ) ;
#525 = CARTESIAN_POINT ( 'NONE',  ( 0.000000000000000000, 0.000000000000000000, -8.429999999999999716 ) ) ;
#526 =( NAMED_UNIT ( * ) PLANE_ANGLE_UNIT ( ) SI_UNIT ( $, .RADIAN. ) );
#527 = ORIENTED_EDGE ( 'NONE', *, *, #151, .F. ) ;
#528 = PRODUCT_CONTEXT ( 'NONE', #185, 'mechanical' ) ;
#529 = CARTESIAN_POINT ( 'NONE',  ( 4.790000000000000036, 0.000000000000000000, -8.429999999999999716 ) ) ;
#530 = CARTESIAN_POINT ( 'NONE',  ( -2.720610024134986649, 0.08722135569032987701, -0.07061002413498548846 ) ) ;
#531 = ORIENTED_EDGE ( 'NONE', *, *, #643, .F. ) ;
#532 = CARTESIAN_POINT ( 'NONE',  ( -3.520000000000000018, 0.09728214302486838660, 0.000000000000000000 ) ) ;
#533 = SURFACE_STYLE_FILL_AREA ( #260 ) ;
#534 = AXIS2_PLACEMENT_3D ( 'NONE', #78, #804, #446 ) ;
#535 = ORIENTED_EDGE ( 'NONE', *, *, #402, .T. ) ;
#536 = ADVANCED_FACE ( 'NONE', ( #27 ), #172, .F. ) ;
#537 = DIRECTION ( 'NONE',  ( 0.000000000000000000, 1.000000000000000000, 0.000000000000000000 ) ) ;
#538 = VECTOR ( 'NONE', #175, 999.9999999999998863 ) ;
#539 = CIRCLE ( 'NONE', #885, 0.7700000000000000178 ) ;
#540 = PRESENTATION_LAYER_ASSIGNMENT (  '', '', ( #319 ) ) ;
#541 = SURFACE_SIDE_STYLE ('',( #38 ) ) ;
#542 = PRODUCT_DEFINITION_CONTEXT ( 'detailed design', #887, 'design' ) ;
#543 = ORIENTED_EDGE ( 'NONE', *, *, #668, .T. ) ;
#544 = SURFACE_SIDE_STYLE ('',( #605 ) ) ;
#545 = DIRECTION ( 'NONE',  ( 0.000000000000000000, 0.000000000000000000, 1.000000000000000000 ) ) ;
#546 = VERTEX_POINT ( 'NONE', #714 ) ;
#547 = DIRECTION ( 'NONE',  ( 0.000000000000000000, -1.000000000000000000, 0.000000000000000000 ) ) ;
#548 = SURFACE_STYLE_USAGE ( .BOTH. , #401 ) ;
#549 =( LENGTH_UNIT ( ) NAMED_UNIT ( * ) SI_UNIT ( .MILLI., .METRE. ) );
#550 = CARTESIAN_POINT ( 'NONE',  ( -3.520000000000000018, 0.9672821430248630392, 0.000000000000000000 ) ) ;
#551 = UNCERTAINTY_MEASURE_WITH_UNIT (LENGTH_MEASURE( 1.000000000000000082E-05 ), #749, 'distance_accuracy_value', 'NONE');
#552 = ORIENTED_EDGE ( 'NONE', *, *, #402, .F. ) ;
#553 =( NAMED_UNIT ( * ) SI_UNIT ( $, .STERADIAN. ) SOLID_ANGLE_UNIT ( ) );
#554 = COLOUR_RGB ( '',0.8274509803921568096, 0.6666666666666666297, 0.1294117647058823373 ) ;
#555 = AXIS2_PLACEMENT_3D ( 'NONE', #550, #410, #840 ) ;
#556 = EDGE_CURVE ( 'NONE', #143, #97, #539, .T. ) ;
#557 = DIRECTION ( 'NONE',  ( 0.000000000000000000, -1.000000000000000000, 0.000000000000000000 ) ) ;
#558 = CARTESIAN_POINT ( 'NONE',  ( -3.520000000000000018, 3.594396134800000198, 0.000000000000000000 ) ) ;
#559 = DIRECTION ( 'NONE',  ( 0.000000000000000000, 0.000000000000000000, -1.000000000000000000 ) ) ;
#560 = CARTESIAN_POINT ( 'NONE',  ( -4.398612356173398297, 0.000000000000000000, 0.000000000000000000 ) ) ;
#561 = EDGE_CURVE ( 'NONE', #923, #250, #20, .T. ) ;
#562 = ORIENTED_EDGE ( 'NONE', *, *, #788, .T. ) ;
#563 = DIRECTION ( 'NONE',  ( -1.000000000000000000, 0.000000000000000000, 0.000000000000000000 ) ) ;
#564 = CARTESIAN_POINT ( 'NONE',  ( 2.423478879865056168, 1.089250122791482145, 0.000000000000000000 ) ) ;
#565 = VECTOR ( 'NONE', #328, 1000.000000000000000 ) ;
#566 = CIRCLE ( 'NONE', #638, 0.8700000000000025491 ) ;
#567 = FACE_OUTER_BOUND ( 'NONE', #603, .T. ) ;
#568 = MECHANICAL_DESIGN_GEOMETRIC_PRESENTATION_REPRESENTATION (  '', ( #929 ), #886 ) ;
#569 = CARTESIAN_POINT ( 'NONE',  ( 2.424233764672501401, 1.090000000000000080, 0.000000000000000000 ) ) ;
#570 = DIRECTION ( 'NONE',  ( -1.000000000000000000, 0.000000000000000000, -0.000000000000000000 ) ) ;
#571 = LINE ( 'NONE', #48, #637 ) ;
#572 = ORIENTED_EDGE ( 'NONE', *, *, #298, .T. ) ;
#573 = FACE_OUTER_BOUND ( 'NONE', #875, .T. ) ;
#574 = EDGE_CURVE ( 'NONE', #715, #106, #583, .T. ) ;
#575 =( NAMED_UNIT ( * ) PLANE_ANGLE_UNIT ( ) SI_UNIT ( $, .RADIAN. ) );
#576 = ORIENTED_EDGE ( 'NONE', *, *, #306, .T. ) ;
#577 = AXIS2_PLACEMENT_3D ( 'NONE', #94, #382, #2 ) ;
#578 = SURFACE_SIDE_STYLE ('',( #712 ) ) ;
#579 = PRESENTATION_LAYER_ASSIGNMENT (  '', '', ( #725 ) ) ;
#580 = CARTESIAN_POINT ( 'NONE',  ( 1.560000000000000275, 0.000000000000000000, -0.1000000000000000056 ) ) ;
#581 = VECTOR ( 'NONE', #303, 1000.000000000000000 ) ;
#582 = EDGE_LOOP ( 'NONE', ( #477, #33, #59, #427, #84 ) ) ;
#583 = LINE ( 'NONE', #79, #683 ) ;
#584 = EDGE_LOOP ( 'NONE', ( #203, #607, #353, #846, #343, #391, #443 ) ) ;
#585 = LINE ( 'NONE', #150, #698 ) ;
#586 =( NAMED_UNIT ( * ) PLANE_ANGLE_UNIT ( ) SI_UNIT ( $, .RADIAN. ) );
#587 = CARTESIAN_POINT ( 'NONE',  ( 2.423478879865056168, 1.090000000000000080, 0.000000000000000000 ) ) ;
#588 = ORIENTED_EDGE ( 'NONE', *, *, #137, .T. ) ;
#589 = EDGE_CURVE ( 'NONE', #715, #472, #168, .T. ) ;
#590 =( LENGTH_UNIT ( ) NAMED_UNIT ( * ) SI_UNIT ( .MILLI., .METRE. ) );
#591 = AXIS2_PLACEMENT_3D ( 'NONE', #170, #234, #513 ) ;
#592 = CARTESIAN_POINT ( 'NONE',  ( -3.520000000000000018, 0.1227178569751367354, 0.000000000000000000 ) ) ;
#593 = VECTOR ( 'NONE', #661, 1000.000000000000000 ) ;
#594 = ORIENTED_EDGE ( 'NONE', *, *, #137, .F. ) ;
#595 = COLOUR_RGB ( '',0.8274509803921568096, 0.6666666666666666297, 0.1294117647058823373 ) ;
#596 = EDGE_CURVE ( 'NONE', #888, #829, #799, .T. ) ;
#597 = LINE ( 'NONE', #55, #421 ) ;
#598 = ORIENTED_EDGE ( 'NONE', *, *, #429, .T. ) ;
#599 = FILL_AREA_STYLE_COLOUR ( '', #256 ) ;
#600 = EDGE_CURVE ( 'NONE', #16, #728, #709, .T. ) ;
#601 = FACE_OUTER_BOUND ( 'NONE', #136, .T. ) ;
#602 = UNCERTAINTY_MEASURE_WITH_UNIT (LENGTH_MEASURE( 1.000000000000000082E-05 ), #296, 'distance_accuracy_value', 'NONE');
#603 = EDGE_LOOP ( 'NONE', ( #535, #572, #119, #46, #235, #703 ) ) ;
#604 = LINE ( 'NONE', #898, #132 ) ;
#605 = SURFACE_STYLE_FILL_AREA ( #330 ) ;
#606 = CARTESIAN_POINT ( 'NONE',  ( 0.7343360604573181405, 1.047600263615228178, -0.03512472669809916376 ) ) ;
#607 = ORIENTED_EDGE ( 'NONE', *, *, #618, .F. ) ;
#608 = CARTESIAN_POINT ( 'NONE',  ( 0.7034865471598398257, 0.007668803364026172999, 0.000000000000000000 ) ) ;
#609 = PRESENTATION_LAYER_ASSIGNMENT (  '', '', ( #486 ) ) ;
#610 = CIRCLE ( 'NONE', #335, 0.8700000000000008837 ) ;
#611 = PRESENTATION_LAYER_ASSIGNMENT (  '', '', ( #135 ) ) ;
#612 = FILL_AREA_STYLE_COLOUR ( '', #808 ) ;
#613 = ORIENTED_EDGE ( 'NONE', *, *, #556, .T. ) ;
#614 = DIRECTION ( 'NONE',  ( 0.000000000000000000, 0.000000000000000000, 1.000000000000000000 ) ) ;
#615 = CARTESIAN_POINT ( 'NONE',  ( 2.329972617288611492, 0.09999999999999982514, -0.09350626257644431560 ) ) ;
#616 = ORIENTED_EDGE ( 'NONE', *, *, #814, .T. ) ;
#617 = CARTESIAN_POINT ( 'NONE',  ( -2.649999999999999911, 1.080269156011875342, 0.000000000000000000 ) ) ;
#618 = EDGE_CURVE ( 'NONE', #460, #198, #45, .T. ) ;
#619 = LINE ( 'NONE', #144, #901 ) ;
#620 = PLANE ( 'NONE',  #746 ) ;
#621 = LINE ( 'NONE', #916, #708 ) ;
#622 = CYLINDRICAL_SURFACE ( 'NONE', #503, 0.7700000000000000178 ) ;
#623 = AXIS2_PLACEMENT_3D ( 'NONE', #12, #162, #374 ) ;
#624 = CIRCLE ( 'NONE', #228, 0.8786123561733985010 ) ;
#625 = VECTOR ( 'NONE', #647, 1000.000000000000000 ) ;
#626 = EDGE_CURVE ( 'NONE', #837, #106, #624, .T. ) ;
#627 = SURFACE_STYLE_FILL_AREA ( #639 ) ;
#628 = DIRECTION ( 'NONE',  ( -1.000000000000000000, 0.000000000000000000, -0.000000000000000000 ) ) ;
#629 = CARTESIAN_POINT ( 'NONE',  ( 2.423730508856575483, 0.0004999188662140412708, 0.000000000000000000 ) ) ;
#630 = EDGE_LOOP ( 'NONE', ( #67, #110, #255, #373, #300 ) ) ;
#631 = CARTESIAN_POINT ( 'NONE',  ( 1.560000000000000275, 1.090000000000000080, -0.1000000000000000056 ) ) ;
#632 = FACE_OUTER_BOUND ( 'NONE', #405, .T. ) ;
#633 = ORIENTED_EDGE ( 'NONE', *, *, #369, .F. ) ;
#634 = PLANE ( 'NONE',  #884 ) ;
#635 = STYLED_ITEM ( 'NONE', ( #932 ), #158 ) ;
#636 = MECHANICAL_DESIGN_GEOMETRIC_PRESENTATION_REPRESENTATION (  '', ( #635 ), #163 ) ;
#637 = VECTOR ( 'NONE', #293, 999.9999999999998863 ) ;
#638 = AXIS2_PLACEMENT_3D ( 'NONE', #631, #213, #491 ) ;
#639 = FILL_AREA_STYLE ('',( #69 ) ) ;
#640 = AXIS2_PLACEMENT_3D ( 'NONE', #13, #813, #524 ) ;
#641 = DIRECTION ( 'NONE',  ( 0.000000000000000000, 0.000000000000000000, 1.000000000000000000 ) ) ;
#642 = ORIENTED_EDGE ( 'NONE', *, *, #814, .F. ) ;
#643 = EDGE_CURVE ( 'NONE', #472, #888, #597, .T. ) ;
#644 = FACE_OUTER_BOUND ( 'NONE', #892, .T. ) ;
#645 = DIRECTION ( 'NONE',  ( 0.000000000000000000, -0.000000000000000000, 1.000000000000000000 ) ) ;
#646 = EDGE_CURVE ( 'NONE', #705, #837, #436, .T. ) ;
#647 = DIRECTION ( 'NONE',  ( 0.000000000000000000, -1.000000000000000000, 0.000000000000000000 ) ) ;
#648 = DIRECTION ( 'NONE',  ( 0.000000000000000000, 1.000000000000000000, 0.000000000000000000 ) ) ;
#649 = EDGE_LOOP ( 'NONE', ( #675, #366, #653, #670 ) ) ;
#650 = PRESENTATION_LAYER_ASSIGNMENT (  '', '', ( #164 ) ) ;
#651 = AXIS2_PLACEMENT_3D ( 'NONE', #64, #559, #483 ) ;
#652 = DIRECTION ( 'NONE',  ( -0.000000000000000000, -1.000000000000000000, -0.000000000000000000 ) ) ;
#653 = ORIENTED_EDGE ( 'NONE', *, *, #819, .F. ) ;
#654 =( NAMED_UNIT ( * ) SI_UNIT ( $, .STERADIAN. ) SOLID_ANGLE_UNIT ( ) );
#655 = SURFACE_SIDE_STYLE ('',( #370 ) ) ;
#656 = FILL_AREA_STYLE ('',( #442 ) ) ;
#657 = EDGE_CURVE ( 'NONE', #921, #457, #112, .T. ) ;
#658 = ORIENTED_EDGE ( 'NONE', *, *, #361, .F. ) ;
#659 = CARTESIAN_POINT ( 'NONE',  ( -4.790000000000000036, 1.090000000000000080, -8.429999999999999716 ) ) ;
#660 = DIRECTION ( 'NONE',  ( 0.000000000000000000, -0.000000000000000000, 1.000000000000000000 ) ) ;
#661 = DIRECTION ( 'NONE',  ( 1.000000000000000000, -0.000000000000000000, 0.000000000000000000 ) ) ;
#662 = EDGE_LOOP ( 'NONE', ( #3, #588, #515, #208 ) ) ;
#663 = MECHANICAL_DESIGN_GEOMETRIC_PRESENTATION_REPRESENTATION (  '', ( #792 ), #520 ) ;
#664 = CARTESIAN_POINT ( 'NONE',  ( -4.282452286600658908, 0.9672821430248630392, -0.1075477133993398282 ) ) ;
#665 =( GEOMETRIC_REPRESENTATION_CONTEXT ( 3 ) GLOBAL_UNCERTAINTY_ASSIGNED_CONTEXT ( ( #687 ) ) GLOBAL_UNIT_ASSIGNED_CONTEXT ( ( #494, #575, #354 ) ) REPRESENTATION_CONTEXT ( 'NONE', 'WORKASPACE' ) );
#666 = ORIENTED_EDGE ( 'NONE', *, *, #339, .F. ) ;
#667 = DIRECTION ( 'NONE',  ( 0.000000000000000000, 1.000000000000000000, 0.000000000000000000 ) ) ;
#668 = EDGE_CURVE ( 'NONE', #800, #133, #922, .T. ) ;
#669 = CARTESIAN_POINT ( 'NONE',  ( 0.7618387714685616041, 1.017834483434011839, -0.07091789332017872649 ) ) ;
#670 = ORIENTED_EDGE ( 'NONE', *, *, #248, .F. ) ;
#671 =( NAMED_UNIT ( * ) SI_UNIT ( $, .STERADIAN. ) SOLID_ANGLE_UNIT ( ) );
#672 = CARTESIAN_POINT ( 'NONE',  ( 0.000000000000000000, 1.090000000000000080, 0.000000000000000000 ) ) ;
#673 = CARTESIAN_POINT ( 'NONE',  ( 2.423478879865056168, 0.0007498772085160875650, 0.000000000000000000 ) ) ;
#674 = UNCERTAINTY_MEASURE_WITH_UNIT (LENGTH_MEASURE( 1.000000000000000082E-05 ), #223, 'distance_accuracy_value', 'NONE');
#675 = ORIENTED_EDGE ( 'NONE', *, *, #717, .T. ) ;
#676 = DIRECTION ( 'NONE',  ( 0.000000000000000000, 0.000000000000000000, 1.000000000000000000 ) ) ;
#677 = DIRECTION ( 'NONE',  ( 0.000000000000000000, 0.000000000000000000, -1.000000000000000000 ) ) ;
#678 = DIRECTION ( 'NONE',  ( -0.000000000000000000, 1.000000000000000000, -0.000000000000000000 ) ) ;
#679 = B_SPLINE_CURVE_WITH_KNOTS ( 'NONE', 3,
 ( #189, #333, #608, #125 ),
 .UNSPECIFIED., .F., .F.,
 ( 4, 4 ),
 ( 0.000000000000000000, 1.632271298505689986E-05 ),
 .UNSPECIFIED. ) ;
#680 = PRESENTATION_LAYER_ASSIGNMENT (  '', '', ( #759 ) ) ;
#681 = ORIENTED_EDGE ( 'NONE', *, *, #173, .T. ) ;
#682 = AXIS2_PLACEMENT_3D ( 'NONE', #834, #440, #496 ) ;
#683 = VECTOR ( 'NONE', #372, 1000.000000000000000 ) ;
#684 = FACE_OUTER_BOUND ( 'NONE', #169, .T. ) ;
#685 = DIRECTION ( 'NONE',  ( 0.000000000000000000, 0.000000000000000000, 1.000000000000000000 ) ) ;
#686 = DIRECTION ( 'NONE',  ( -0.000000000000000000, 1.000000000000000000, 0.000000000000000000 ) ) ;
#687 = UNCERTAINTY_MEASURE_WITH_UNIT (LENGTH_MEASURE( 1.000000000000000082E-05 ), #494, 'distance_accuracy_value', 'NONE');
#688 = ORIENTED_EDGE ( 'NONE', *, *, #96, .F. ) ;
#689 = EDGE_CURVE ( 'NONE', #161, #460, #104, .T. ) ;
#690 =( NAMED_UNIT ( * ) PLANE_ANGLE_UNIT ( ) SI_UNIT ( $, .RADIAN. ) );
#691 = CARTESIAN_POINT ( 'NONE',  ( -2.684890588811001511, 0.04915267809925590037, -0.03489058881100098874 ) ) ;
#692 = MANIFOLD_SOLID_BREP ( 'Chamfer1', #241 ) ;
#693 = CARTESIAN_POINT ( 'NONE',  ( 0.000000000000000000, 1.090000000000000080, 0.000000000000000000 ) ) ;
#694 = CARTESIAN_POINT ( 'NONE',  ( -2.684890588811001511, 1.040847321900744138, -0.03489058881100100262 ) ) ;
#695 = CARTESIAN_POINT ( 'NONE',  ( 2.361703309925900385, 1.021997162655113867, -0.06177556993915539474 ) ) ;
#696 = DIRECTION ( 'NONE',  ( 0.000000000000000000, 0.000000000000000000, -1.000000000000000000 ) ) ;
#697 =( GEOMETRIC_REPRESENTATION_CONTEXT ( 3 ) GLOBAL_UNCERTAINTY_ASSIGNED_CONTEXT ( ( #826 ) ) GLOBAL_UNIT_ASSIGNED_CONTEXT ( ( #734, #315, #889 ) ) REPRESENTATION_CONTEXT ( 'NONE', 'WORKASPACE' ) );
#698 = VECTOR ( 'NONE', #870, 1000.000000000000000 ) ;
#699 = CARTESIAN_POINT ( 'NONE',  ( 0.6957662353275005929, 0.000000000000000000, 0.000000000000000000 ) ) ;
#700 = CARTESIAN_POINT ( 'NONE',  ( -4.282452286600658908, 0.1227178569751367077, -0.1075477133993398282 ) ) ;
#701 = CARTESIAN_POINT ( 'NONE',  ( -2.649999999999999911, 1.080269156011875342, 0.000000000000000000 ) ) ;
#702 = CARTESIAN_POINT ( 'NONE',  ( 2.423478879865056168, 0.0007498772085160875650, 0.000000000000000000 ) ) ;
#703 = ORIENTED_EDGE ( 'NONE', *, *, #913, .T. ) ;
#704 = FACE_OUTER_BOUND ( 'NONE', #383, .T. ) ;
#705 = VERTEX_POINT ( 'NONE', #116 ) ;
#706 = DIRECTION ( 'NONE',  ( -1.000000000000000000, 0.000000000000000000, -0.000000000000000000 ) ) ;
#707 = COLOUR_RGB ( '',0.8274509803921568096, 0.6666666666666666297, 0.1294117647058823373 ) ;
#708 = VECTOR ( 'NONE', #278, 1000.000000000000000 ) ;
#709 = CIRCLE ( 'NONE', #317, 0.7700000000000000178 ) ;
#710 = COLOUR_RGB ( '',0.8274509803921568096, 0.6666666666666666297, 0.1294117647058823373 ) ;
#711 = DIRECTION ( 'NONE',  ( -0.000000000000000000, 1.000000000000000000, 0.000000000000000000 ) ) ;
#712 = SURFACE_STYLE_FILL_AREA ( #453 ) ;
#713 = FILL_AREA_STYLE_COLOUR ( '', #790 ) ;
#714 = CARTESIAN_POINT ( 'NONE',  ( -4.389999999999999680, 1.080269156011874898, 0.000000000000000000 ) ) ;
#715 = VERTEX_POINT ( 'NONE', #109 ) ;
#716 = SURFACE_STYLE_USAGE ( .BOTH. , #18 ) ;
#717 = EDGE_CURVE ( 'NONE', #842, #250, #786, .T. ) ;
#718 =( NAMED_UNIT ( * ) SI_UNIT ( $, .STERADIAN. ) SOLID_ANGLE_UNIT ( ) );
#719 = CARTESIAN_POINT ( 'NONE',  ( -2.641387643826602183, 1.090000000000000080, 0.000000000000000000 ) ) ;
#720 = EDGE_LOOP ( 'NONE', ( #745, #848, #91, #499 ) ) ;
#721 = FILL_AREA_STYLE_COLOUR ( '', #554 ) ;
#722 = VECTOR ( 'NONE', #750, 1000.000000000000000 ) ;
#723 = PRESENTATION_LAYER_ASSIGNMENT (  '', '', ( #6 ) ) ;
#724 = CYLINDRICAL_SURFACE ( 'NONE', #640, 0.7700000000000000178 ) ;
#725 = STYLED_ITEM ( 'NONE', ( #465 ), #757 ) ;
#726 = PRESENTATION_STYLE_ASSIGNMENT (( #8 ) ) ;
#727 = SURFACE_STYLE_FILL_AREA ( #231 ) ;
#728 = VERTEX_POINT ( 'NONE', #765 ) ;
#729 = FACE_OUTER_BOUND ( 'NONE', #649, .T. ) ;
#730 = CARTESIAN_POINT ( 'NONE',  ( -3.520000000000000018, 0.1227178569751367354, 0.000000000000000000 ) ) ;
#731 =( NAMED_UNIT ( * ) SI_UNIT ( $, .STERADIAN. ) SOLID_ANGLE_UNIT ( ) );
#732 = SURFACE_SIDE_STYLE ('',( #727 ) ) ;
#733 = EDGE_LOOP ( 'NONE', ( #785, #177, #454, #576, #873, #380, #854, #39 ) ) ;
#734 =( LENGTH_UNIT ( ) NAMED_UNIT ( * ) SI_UNIT ( .MILLI., .METRE. ) );
#735 = CARTESIAN_POINT ( 'NONE',  ( 4.790000000000000036, 0.000000000000000000, 0.000000000000000000 ) ) ;
#736 = FILL_AREA_STYLE_COLOUR ( '', #707 ) ;
#737 = CARTESIAN_POINT ( 'NONE',  ( -4.355109411188998081, 1.040847321900743916, -0.03489058881100115528 ) ) ;
#738 = ORIENTED_EDGE ( 'NONE', *, *, #178, .F. ) ;
#739 = EDGE_CURVE ( 'NONE', #264, #521, #214, .T. ) ;
#740 = SURFACE_SIDE_STYLE ('',( #308 ) ) ;
#741 =( LENGTH_UNIT ( ) NAMED_UNIT ( * ) SI_UNIT ( .MILLI., .METRE. ) );
#742 = CARTESIAN_POINT ( 'NONE',  ( 0.6957662353275165801, 1.090000000000000080, 0.000000000000000000 ) ) ;
#743 = CARTESIAN_POINT ( 'NONE',  ( 2.392806079074255354, 0.03474768172229637797, -0.03067280079080064725 ) ) ;
#744 = PRESENTATION_LAYER_ASSIGNMENT (  '', '', ( #778 ) ) ;
#745 = ORIENTED_EDGE ( 'NONE', *, *, #23, .T. ) ;
#746 = AXIS2_PLACEMENT_3D ( 'NONE', #787, #563, #210 ) ;
#747 = CARTESIAN_POINT ( 'NONE',  ( 0.7618387714682145484, 0.07216551656681123583, -0.07091789331972699062 ) ) ;
#748 = EDGE_CURVE ( 'NONE', #432, #198, #836, .T. ) ;
#749 =( LENGTH_UNIT ( ) NAMED_UNIT ( * ) SI_UNIT ( .MILLI., .METRE. ) );
#750 = DIRECTION ( 'NONE',  ( 0.000000000000000000, -1.000000000000000000, 0.000000000000000000 ) ) ;
#751 = DIRECTION ( 'NONE',  ( 0.000000000000000000, 0.000000000000000000, 1.000000000000000000 ) ) ;
#752 = EDGE_LOOP ( 'NONE', ( #543, #388, #633, #642 ) ) ;
#753 = PRESENTATION_STYLE_ASSIGNMENT (( #121 ) ) ;
#754 = CARTESIAN_POINT ( 'NONE',  ( -3.520000000000000018, 0.9672821430248630392, 0.000000000000000000 ) ) ;
#755 = CARTESIAN_POINT ( 'NONE',  ( 1.560000000000000275, 0.9899999999999965494, -0.1000000000000000056 ) ) ;
#756 = ORIENTED_EDGE ( 'NONE', *, *, #57, .T. ) ;
#757 = ADVANCED_FACE ( 'NONE', ( #601 ), #905, .F. ) ;
#758 = LINE ( 'NONE', #181, #239 ) ;
#759 = STYLED_ITEM ( 'NONE', ( #903 ), #224 ) ;
#760 =( NAMED_UNIT ( * ) SI_UNIT ( $, .STERADIAN. ) SOLID_ANGLE_UNIT ( ) );
#761 = ORIENTED_EDGE ( 'NONE', *, *, #890, .F. ) ;
#762 = MECHANICAL_DESIGN_GEOMETRIC_PRESENTATION_REPRESENTATION (  '', ( #164 ), #665 ) ;
#763 = AXIS2_PLACEMENT_3D ( 'NONE', #71, #219, #500 ) ;
#764 = PRESENTATION_LAYER_ASSIGNMENT (  '', '', ( #929 ) ) ;
#765 = CARTESIAN_POINT ( 'NONE',  ( -3.520000000000000018, 0.1227178569751367354, -0.7700000000000000178 ) ) ;
#766 = UNCERTAINTY_MEASURE_WITH_UNIT (LENGTH_MEASURE( 1.000000000000000082E-05 ), #505, 'distance_accuracy_value', 'NONE');
#767 = ORIENTED_EDGE ( 'NONE', *, *, #290, .F. ) ;
#768 = FACE_OUTER_BOUND ( 'NONE', #81, .T. ) ;
#769 = LINE ( 'NONE', #362, #452 ) ;
#770 = CARTESIAN_POINT ( 'NONE',  ( 1.560000000000000275, 0.09999999999999982514, -0.8700000000000001066 ) ) ;
#771 = ADVANCED_FACE ( 'NONE', ( #567 ), #221, .F. ) ;
#772 = VERTEX_POINT ( 'NONE', #204 ) ;
#773 = DIRECTION ( 'NONE',  ( 0.000000000000000000, 0.000000000000000000, 1.000000000000000000 ) ) ;
#774 = ORIENTED_EDGE ( 'NONE', *, *, #506, .T. ) ;
#775 = SURFACE_STYLE_USAGE ( .BOTH. , #431 ) ;
#776 = MECHANICAL_DESIGN_GEOMETRIC_PRESENTATION_REPRESENTATION (  '', ( #273 ), #130 ) ;
#777 = VECTOR ( 'NONE', #389, 1000.000000000000000 ) ;
#778 = STYLED_ITEM ( 'NONE', ( #818 ), #692 ) ;
#779 = PRODUCT_DEFINITION_FORMATION_WITH_SPECIFIED_SOURCE ( 'ANY', '', #403, .NOT_KNOWN. ) ;
#780 = DIRECTION ( 'NONE',  ( -0.000000000000000000, 1.000000000000000000, -0.000000000000000000 ) ) ;
#781 = CARTESIAN_POINT ( 'NONE',  ( 0.000000000000000000, 1.090000000000000080, 0.000000000000000000 ) ) ;
#782 = FACE_OUTER_BOUND ( 'NONE', #662, .T. ) ;
#783 = PLANE ( 'NONE',  #464 ) ;
#784 = CARTESIAN_POINT ( 'NONE',  ( -4.319389975865013831, 0.08722135569033012681, -0.07061002413498571051 ) ) ;
#785 = ORIENTED_EDGE ( 'NONE', *, *, #429, .F. ) ;
#786 = B_SPLINE_CURVE_WITH_KNOTS ( 'NONE', 3,
 ( #615, #271, #743, #673 ),
 .UNSPECIFIED., .F., .F.,
 ( 4, 4 ),
 ( 0.000000000000000000, 0.0001653403434015836033 ),
 .UNSPECIFIED. ) ;
#787 = CARTESIAN_POINT ( 'NONE',  ( -4.790000000000000036, 1.090000000000000080, 0.000000000000000000 ) ) ;
#788 = EDGE_CURVE ( 'NONE', #811, #857, #610, .T. ) ;
#789 = CARTESIAN_POINT ( 'NONE',  ( 0.6957662353275165801, 1.090000000000000080, 0.000000000000000000 ) ) ;
#790 = COLOUR_RGB ( '',0.8274509803921568096, 0.6666666666666666297, 0.1294117647058823373 ) ;
#791 = LINE ( 'NONE', #268, #379 ) ;
#792 = STYLED_ITEM ( 'NONE', ( #468 ), #375 ) ;
#793 = COLOUR_RGB ( '',0.8274509803921568096, 0.6666666666666666297, 0.1294117647058823373 ) ;
#794 =( NAMED_UNIT ( * ) SI_UNIT ( $, .STERADIAN. ) SOLID_ANGLE_UNIT ( ) );
#795 = FACE_OUTER_BOUND ( 'NONE', #346, .T. ) ;
#796 = ORIENTED_EDGE ( 'NONE', *, *, #802, .F. ) ;
#797 = DIRECTION ( 'NONE',  ( 0.000000000000000000, 0.000000000000000000, -1.000000000000000000 ) ) ;
#798 = CARTESIAN_POINT ( 'NONE',  ( -3.520000000000000018, 0.09728214302486838660, 0.000000000000000000 ) ) ;
#799 = LINE ( 'NONE', #518, #593 ) ;
#800 = VERTEX_POINT ( 'NONE', #860 ) ;
#801 = FACE_OUTER_BOUND ( 'NONE', #584, .T. ) ;
#802 = EDGE_CURVE ( 'NONE', #250, #811, #252, .T. ) ;
#803 = FILL_AREA_STYLE_COLOUR ( '', #793 ) ;
#804 = DIRECTION ( 'NONE',  ( 0.7071067811865446862, 0.000000000000000000, 0.7071067811865504593 ) ) ;
#805 = ORIENTED_EDGE ( 'NONE', *, *, #30, .T. ) ;
#806 = COLOUR_RGB ( '',0.8274509803921568096, 0.6666666666666666297, 0.1294117647058823373 ) ;
#807 =( NAMED_UNIT ( * ) SI_UNIT ( $, .STERADIAN. ) SOLID_ANGLE_UNIT ( ) );
#808 = COLOUR_RGB ( '',0.1098039215686274495, 0.1098039215686274495, 0.1098039215686274495 ) ;
#809 = CARTESIAN_POINT ( 'NONE',  ( 2.329972617288611492, 0.9899999999999965494, -0.09350626257644431560 ) ) ;
#810 = DIRECTION ( 'NONE',  ( 0.000000000000000000, -1.000000000000000000, 0.000000000000000000 ) ) ;
#811 = VERTEX_POINT ( 'NONE', #127 ) ;
#812 = PLANE ( 'NONE',  #623 ) ;
#813 = DIRECTION ( 'NONE',  ( 0.000000000000000000, -1.000000000000000000, 0.000000000000000000 ) ) ;
#814 = EDGE_CURVE ( 'NONE', #800, #264, #769, .T. ) ;
#815 =( LENGTH_UNIT ( ) NAMED_UNIT ( * ) SI_UNIT ( .MILLI., .METRE. ) );
#816 = VERTEX_POINT ( 'NONE', #699 ) ;
#817 = FACE_OUTER_BOUND ( 'NONE', #582, .T. ) ;
#818 = PRESENTATION_STYLE_ASSIGNMENT (( #326 ) ) ;
#819 = EDGE_CURVE ( 'NONE', #161, #923, #877, .T. ) ;
#820 = ORIENTED_EDGE ( 'NONE', *, *, #498, .F. ) ;
#821 = FILL_AREA_STYLE ('',( #444 ) ) ;
#822 = DIRECTION ( 'NONE',  ( 0.000000000000000000, 0.000000000000000000, 1.000000000000000000 ) ) ;
#823 = VECTOR ( 'NONE', #292, 1000.000000000000000 ) ;
#824 =( GEOMETRIC_REPRESENTATION_CONTEXT ( 3 ) GLOBAL_UNCERTAINTY_ASSIGNED_CONTEXT ( ( #881 ) ) GLOBAL_UNIT_ASSIGNED_CONTEXT ( ( #22, #893, #654 ) ) REPRESENTATION_CONTEXT ( 'NONE', 'WORKASPACE' ) );
#825 = SURFACE_SIDE_STYLE ('',( #533 ) ) ;
#826 = UNCERTAINTY_MEASURE_WITH_UNIT (LENGTH_MEASURE( 1.000000000000000082E-05 ), #734, 'distance_accuracy_value', 'NONE');
#827 = MECHANICAL_DESIGN_GEOMETRIC_PRESENTATION_REPRESENTATION (  '', ( #778 ), #463 ) ;
#828 = AXIS2_PLACEMENT_3D ( 'NONE', #386, #230, #660 ) ;
#829 = VERTEX_POINT ( 'NONE', #426 ) ;
#830 = CARTESIAN_POINT ( 'NONE',  ( -3.520000000000000018, 0.000000000000000000, 0.000000000000000000 ) ) ;
#831 = ORIENTED_EDGE ( 'NONE', *, *, #202, .T. ) ;
#832 = CARTESIAN_POINT ( 'NONE',  ( -2.720610024134986649, 1.002778644309670009, -0.07061002413498551622 ) ) ;
#833 = ADVANCED_FACE ( 'NONE', ( #355 ), #620, .T. ) ;
#834 = CARTESIAN_POINT ( 'NONE',  ( -3.520000000000000018, 0.1227178569751367354, 0.000000000000000000 ) ) ;
#835 = FILL_AREA_STYLE ('',( #612 ) ) ;
#836 = B_SPLINE_CURVE_WITH_KNOTS ( 'NONE', 3,
 ( #904, #606, #669, #32 ),
 .UNSPECIFIED., .F., .F.,
 ( 4, 4 ),
 ( 0.000000000000000000, 0.0001620213774619372348 ),
 .UNSPECIFIED. ) ;
#837 = VERTEX_POINT ( 'NONE', #359 ) ;
#838 = DIRECTION ( 'NONE',  ( 0.000000000000000000, 0.000000000000000000, -1.000000000000000000 ) ) ;
#839 = CARTESIAN_POINT ( 'NONE',  ( 2.423478879865056168, 0.0007498772085160875650, 0.000000000000000000 ) ) ;
#840 = DIRECTION ( 'NONE',  ( 0.000000000000000000, 0.000000000000000000, 1.000000000000000000 ) ) ;
#841 = AXIS2_PLACEMENT_3D ( 'NONE', #54, #479, #645 ) ;
#842 = VERTEX_POINT ( 'NONE', #217 ) ;
#843 = VECTOR ( 'NONE', #134, 1000.000000000000000 ) ;
#844 = DIRECTION ( 'NONE',  ( 0.000000000000000000, 0.000000000000000000, 1.000000000000000000 ) ) ;
#845 = ADVANCED_FACE ( 'NONE', ( #632 ), #783, .F. ) ;
#846 = ORIENTED_EDGE ( 'NONE', *, *, #819, .T. ) ;
#847 = CARTESIAN_POINT ( 'NONE',  ( 0.7073469645238272818, 0.01150294181824322581, 0.000000000000000000 ) ) ;
#848 = ORIENTED_EDGE ( 'NONE', *, *, #890, .T. ) ;
#849 = CARTESIAN_POINT ( 'NONE',  ( 1.560000000000000275, 0.000000000000000000, -0.1000000000000000056 ) ) ;
#850 = FACE_OUTER_BOUND ( 'NONE', #933, .T. ) ;
#851 = CARTESIAN_POINT ( 'NONE',  ( 0.7073469645238272818, 1.078497058181754786, 0.000000000000000000 ) ) ;
#852 = ORIENTED_EDGE ( 'NONE', *, *, #689, .T. ) ;
#853 = CARTESIAN_POINT ( 'NONE',  ( 2.423478879865056168, 1.089250122791482145, 0.000000000000000000 ) ) ;
#854 = ORIENTED_EDGE ( 'NONE', *, *, #294, .T. ) ;
#855 = CONICAL_SURFACE ( 'NONE', #148, 0.8700000000000027711, 0.7853981633974428389 ) ;
#856 = AXIS2_PLACEMENT_3D ( 'NONE', #755, #678, #545 ) ;
#857 = VERTEX_POINT ( 'NONE', #435 ) ;
#858 = FILL_AREA_STYLE_COLOUR ( '', #928 ) ;
#859 = ADVANCED_FACE ( 'NONE', ( #704 ), #507, .F. ) ;
#860 = CARTESIAN_POINT ( 'NONE',  ( -2.757547713399340683, 0.1227178569751367077, -0.1075477133993398005 ) ) ;
#861 = VERTEX_POINT ( 'NONE', #237 ) ;
#862 = ORIENTED_EDGE ( 'NONE', *, *, #506, .F. ) ;
#863 = PLANE ( 'NONE',  #841 ) ;
#864 = FACE_OUTER_BOUND ( 'NONE', #630, .T. ) ;
#865 =( NAMED_UNIT ( * ) PLANE_ANGLE_UNIT ( ) SI_UNIT ( $, .RADIAN. ) );
#866 = ORIENTED_EDGE ( 'NONE', *, *, #348, .F. ) ;
#867 = VECTOR ( 'NONE', #415, 1000.000000000000000 ) ;
#868 = AXIS2_PLACEMENT_3D ( 'NONE', #15, #155, #387 ) ;
#869 = AXIS2_PLACEMENT_3D ( 'NONE', #291, #82, #797 ) ;
#870 = DIRECTION ( 'NONE',  ( 0.6627595788049227554, 0.7488322513769831712, 0.000000000000000000 ) ) ;
#871 = DIRECTION ( 'NONE',  ( 0.000000000000000000, 0.000000000000000000, 1.000000000000000000 ) ) ;
#872 = EDGE_CURVE ( 'NONE', #772, #16, #295, .T. ) ;
#873 = ORIENTED_EDGE ( 'NONE', *, *, #178, .T. ) ;
#874 = PRODUCT_DEFINITION_SHAPE ( 'NONE', 'NONE',  #523 ) ;
#875 = EDGE_LOOP ( 'NONE', ( #738, #240, #152, #272, #761, #594, #508, #338, #562, #332 ) ) ;
#876 = ADVANCED_BREP_SHAPE_REPRESENTATION ( 'ANT-DB1-NSP250-T', ( #692, #259 ), #74 ) ;
#877 = B_SPLINE_CURVE_WITH_KNOTS ( 'NONE', 3,
 ( #417, #695, #138, #853 ),
 .UNSPECIFIED., .F., .F.,
 ( 4, 4 ),
 ( 0.000000000000000000, 0.0001653403434015847959 ),
 .UNSPECIFIED. ) ;
#878 = B_SPLINE_CURVE_WITH_KNOTS ( 'NONE', 3,
 ( #184, #832, #694, #617 ),
 .UNSPECIFIED., .F., .F.,
 ( 4, 4 ),
 ( 0.000000000000000000, 0.0001894705423504679893 ),
 .UNSPECIFIED. ) ;
#879 = SURFACE_STYLE_USAGE ( .BOTH. , #655 ) ;
#880 = DIRECTION ( 'NONE',  ( 0.000000000000000000, -1.000000000000000000, 0.000000000000000000 ) ) ;
#881 = UNCERTAINTY_MEASURE_WITH_UNIT (LENGTH_MEASURE( 1.000000000000000082E-05 ), #22, 'distance_accuracy_value', 'NONE');
#882 = ORIENTED_EDGE ( 'NONE', *, *, #717, .F. ) ;
#883 = FACE_OUTER_BOUND ( 'NONE', #752, .T. ) ;
#884 = AXIS2_PLACEMENT_3D ( 'NONE', #926, #287, #570 ) ;
#885 = AXIS2_PLACEMENT_3D ( 'NONE', #310, #810, #510 ) ;
#886 =( GEOMETRIC_REPRESENTATION_CONTEXT ( 3 ) GLOBAL_UNCERTAINTY_ASSIGNED_CONTEXT ( ( #551 ) ) GLOBAL_UNIT_ASSIGNED_CONTEXT ( ( #749, #186, #31 ) ) REPRESENTATION_CONTEXT ( 'NONE', 'WORKASPACE' ) );
#887 = APPLICATION_CONTEXT ( 'automotive_design' ) ;
#888 = VERTEX_POINT ( 'NONE', #659 ) ;
#889 =( NAMED_UNIT ( * ) SI_UNIT ( $, .STERADIAN. ) SOLID_ANGLE_UNIT ( ) );
#890 = EDGE_CURVE ( 'NONE', #911, #715, #385, .T. ) ;
#891 =( NAMED_UNIT ( * ) SI_UNIT ( $, .STERADIAN. ) SOLID_ANGLE_UNIT ( ) );
#892 = EDGE_LOOP ( 'NONE', ( #666, #831, #909, #191 ) ) ;
#893 =( NAMED_UNIT ( * ) PLANE_ANGLE_UNIT ( ) SI_UNIT ( $, .RADIAN. ) );
#894 = SHAPE_DEFINITION_REPRESENTATION ( #874, #876 ) ;
#895 = FILL_AREA_STYLE_COLOUR ( '', #276 ) ;
#896 = ADVANCED_FACE ( 'NONE', ( #644 ), #724, .F. ) ;
#897 = ORIENTED_EDGE ( 'NONE', *, *, #596, .F. ) ;
#898 = CARTESIAN_POINT ( 'NONE',  ( -4.389999999999999680, 1.090000000000000080, 0.000000000000000000 ) ) ;
#899 = PLANE ( 'NONE',  #489 ) ;
#900 = AXIS2_PLACEMENT_3D ( 'NONE', #167, #371, #614 ) ;
#901 = VECTOR ( 'NONE', #274, 1000.000000000000000 ) ;
#902 = AXIS2_PLACEMENT_3D ( 'NONE', #781, #696, #628 ) ;
#903 = PRESENTATION_STYLE_ASSIGNMENT (( #270 ) ) ;
#904 = CARTESIAN_POINT ( 'NONE',  ( 0.7073469645238272818, 1.078497058181754786, 0.000000000000000000 ) ) ;
#905 = CONICAL_SURFACE ( 'NONE', #87, 0.8786123561733980569, 0.7244979551194634659 ) ;
#906 = ORIENTED_EDGE ( 'NONE', *, *, #657, .F. ) ;
#907 = SURFACE_STYLE_FILL_AREA ( #917 ) ;
#908 = DIRECTION ( 'NONE',  ( 1.000000000000000000, 0.000000000000000000, 0.000000000000000000 ) ) ;
#909 = ORIENTED_EDGE ( 'NONE', *, *, #872, .T. ) ;
#910 = DIRECTION ( 'NONE',  ( 1.000000000000000000, -0.000000000000000000, 0.000000000000000000 ) ) ;
#911 = VERTEX_POINT ( 'NONE', #376 ) ;
#912 = DIRECTION ( 'NONE',  ( -0.000000000000000000, 1.000000000000000000, -0.000000000000000000 ) ) ;
#913 = EDGE_CURVE ( 'NONE', #106, #245, #585, .T. ) ;
#914 = CIRCLE ( 'NONE', #502, 0.8700000000000008837 ) ;
#915 =( GEOMETRIC_REPRESENTATION_CONTEXT ( 3 ) GLOBAL_UNCERTAINTY_ASSIGNED_CONTEXT ( ( #331 ) ) GLOBAL_UNIT_ASSIGNED_CONTEXT ( ( #473, #690, #553 ) ) REPRESENTATION_CONTEXT ( 'NONE', 'WORKASPACE' ) );
#916 = CARTESIAN_POINT ( 'NONE',  ( -3.520000000000000018, 0.1227178569751367354, -0.7700000000000000178 ) ) ;
#917 = FILL_AREA_STYLE ('',( #471 ) ) ;
#918 = PRESENTATION_LAYER_ASSIGNMENT (  '', '', ( #487 ) ) ;
#919 = DIRECTION ( 'NONE',  ( 0.000000000000000000, 0.000000000000000000, -1.000000000000000000 ) ) ;
#920 = ADVANCED_FACE ( 'NONE', ( #864 ), #394, .F. ) ;
#921 = VERTEX_POINT ( 'NONE', #735 ) ;
#922 = B_SPLINE_CURVE_WITH_KNOTS ( 'NONE', 3,
 ( #404, #530, #691, #51 ),
 .UNSPECIFIED., .F., .F.,
 ( 4, 4 ),
 ( 0.000000000000000000, 0.0001894705423504677183 ),
 .UNSPECIFIED. ) ;
#923 = VERTEX_POINT ( 'NONE', #329 ) ;
#924 =( NAMED_UNIT ( * ) PLANE_ANGLE_UNIT ( ) SI_UNIT ( $, .RADIAN. ) );
#925 = ORIENTED_EDGE ( 'NONE', *, *, #96, .T. ) ;
#926 = CARTESIAN_POINT ( 'NONE',  ( 0.000000000000000000, 1.090000000000000080, -8.429999999999999716 ) ) ;
#927 = ADVANCED_FACE ( 'NONE', ( #684 ), #899, .T. ) ;
#928 = COLOUR_RGB ( '',0.8274509803921568096, 0.6666666666666666297, 0.1294117647058823373 ) ;
#929 = STYLED_ITEM ( 'NONE', ( #336 ), #927 ) ;
#930 = LINE ( 'NONE', #65, #823 ) ;
#931 = CARTESIAN_POINT ( 'NONE',  ( 0.000000000000000000, 1.090000000000000080, 0.000000000000000000 ) ) ;
#932 = PRESENTATION_STYLE_ASSIGNMENT (( #14 ) ) ;
#933 = EDGE_LOOP ( 'NONE', ( #756, #222, #598, #63, #28, #289, #897, #531 ) ) ;
ENDSEC;
END-ISO-10303-21;
