ISO-10303-21;
HEADER;
/* Generated by software containing ST-Developer
 * from STEP Tools, Inc. (www.steptools.com) 
 */
/* OPTION: strings as raw bytes, not using required /X/ escapes */

FILE_DESCRIPTION(
/* description */ ('Unknown'),
/* implementation_level */ '2;1');

FILE_NAME(
/* name */ 'V7NM63HM3_I',
/* time_stamp */ '2025-08-12T14:47:26+02:00',
/* author */ ('Unknown'),
/* organization */ ('Unknown'),
/* preprocessor_version */ 'ST-DEVELOPER v18.102',
/* originating_system */ 'Solid Edge',
/* authorisation */ 'Unknown');

FILE_SCHEMA (('AUTOMOTIVE_DESIGN {1 0 10303 214 3 1 1}'));
ENDSEC;

DATA;
#10=PROPERTY_DEFINITION_REPRESENTATION(#14,#12);
#11=PROPERTY_DEFINITION_REPRESENTATION(#15,#13);
#12=REPRESENTATION('',(#16),#861);
#13=REPRESENTATION('',(#17),#861);
#14=PROPERTY_DEFINITION('pmi validation property','',#866);
#15=PROPERTY_DEFINITION('pmi validation property','',#866);
#16=VALUE_REPRESENTATION_ITEM('number of annotations',COUNT_MEASURE(0.));
#17=VALUE_REPRESENTATION_ITEM('number of views',COUNT_MEASURE(0.));
#18=SHAPE_REPRESENTATION_RELATIONSHIP('','',#607,#19);
#19=ADVANCED_BREP_SHAPE_REPRESENTATION('',(#605),#861);
#20=ORIENTED_EDGE('',*,*,#140,.T.);
#21=ORIENTED_EDGE('',*,*,#141,.F.);
#22=ORIENTED_EDGE('',*,*,#142,.F.);
#23=ORIENTED_EDGE('',*,*,#143,.T.);
#24=ORIENTED_EDGE('',*,*,#144,.T.);
#25=ORIENTED_EDGE('',*,*,#145,.T.);
#26=ORIENTED_EDGE('',*,*,#146,.T.);
#27=ORIENTED_EDGE('',*,*,#147,.T.);
#28=ORIENTED_EDGE('',*,*,#148,.T.);
#29=ORIENTED_EDGE('',*,*,#149,.F.);
#30=ORIENTED_EDGE('',*,*,#150,.F.);
#31=ORIENTED_EDGE('',*,*,#141,.T.);
#32=ORIENTED_EDGE('',*,*,#151,.T.);
#33=ORIENTED_EDGE('',*,*,#152,.F.);
#34=ORIENTED_EDGE('',*,*,#153,.F.);
#35=ORIENTED_EDGE('',*,*,#149,.T.);
#36=ORIENTED_EDGE('',*,*,#154,.T.);
#37=ORIENTED_EDGE('',*,*,#155,.T.);
#38=ORIENTED_EDGE('',*,*,#156,.T.);
#39=ORIENTED_EDGE('',*,*,#157,.T.);
#40=ORIENTED_EDGE('',*,*,#158,.T.);
#41=ORIENTED_EDGE('',*,*,#143,.F.);
#42=ORIENTED_EDGE('',*,*,#159,.F.);
#43=ORIENTED_EDGE('',*,*,#152,.T.);
#44=ORIENTED_EDGE('',*,*,#142,.T.);
#45=ORIENTED_EDGE('',*,*,#150,.T.);
#46=ORIENTED_EDGE('',*,*,#153,.T.);
#47=ORIENTED_EDGE('',*,*,#159,.T.);
#48=ORIENTED_EDGE('',*,*,#160,.T.);
#49=ORIENTED_EDGE('',*,*,#161,.T.);
#50=ORIENTED_EDGE('',*,*,#154,.F.);
#51=ORIENTED_EDGE('',*,*,#151,.F.);
#52=ORIENTED_EDGE('',*,*,#148,.F.);
#53=ORIENTED_EDGE('',*,*,#162,.T.);
#54=ORIENTED_EDGE('',*,*,#163,.T.);
#55=ORIENTED_EDGE('',*,*,#164,.T.);
#56=ORIENTED_EDGE('',*,*,#144,.F.);
#57=ORIENTED_EDGE('',*,*,#140,.F.);
#58=ORIENTED_EDGE('',*,*,#158,.F.);
#59=ORIENTED_EDGE('',*,*,#165,.T.);
#60=ORIENTED_EDGE('',*,*,#166,.T.);
#61=ORIENTED_EDGE('',*,*,#167,.T.);
#62=ORIENTED_EDGE('',*,*,#168,.T.);
#63=ORIENTED_EDGE('',*,*,#169,.T.);
#64=ORIENTED_EDGE('',*,*,#146,.F.);
#65=ORIENTED_EDGE('',*,*,#170,.T.);
#66=ORIENTED_EDGE('',*,*,#171,.T.);
#67=ORIENTED_EDGE('',*,*,#172,.T.);
#68=ORIENTED_EDGE('',*,*,#163,.F.);
#69=ORIENTED_EDGE('',*,*,#173,.F.);
#70=ORIENTED_EDGE('',*,*,#174,.T.);
#71=ORIENTED_EDGE('',*,*,#175,.T.);
#72=ORIENTED_EDGE('',*,*,#145,.F.);
#73=ORIENTED_EDGE('',*,*,#164,.F.);
#74=ORIENTED_EDGE('',*,*,#175,.F.);
#75=ORIENTED_EDGE('',*,*,#176,.T.);
#76=ORIENTED_EDGE('',*,*,#177,.T.);
#77=ORIENTED_EDGE('',*,*,#170,.F.);
#78=ORIENTED_EDGE('',*,*,#147,.F.);
#79=ORIENTED_EDGE('',*,*,#172,.F.);
#80=ORIENTED_EDGE('',*,*,#178,.F.);
#81=ORIENTED_EDGE('',*,*,#179,.T.);
#82=ORIENTED_EDGE('',*,*,#173,.T.);
#83=ORIENTED_EDGE('',*,*,#162,.F.);
#84=ORIENTED_EDGE('',*,*,#171,.F.);
#85=ORIENTED_EDGE('',*,*,#177,.F.);
#86=ORIENTED_EDGE('',*,*,#180,.T.);
#87=ORIENTED_EDGE('',*,*,#178,.T.);
#88=ORIENTED_EDGE('',*,*,#174,.F.);
#89=ORIENTED_EDGE('',*,*,#179,.F.);
#90=ORIENTED_EDGE('',*,*,#180,.F.);
#91=ORIENTED_EDGE('',*,*,#176,.F.);
#92=ORIENTED_EDGE('',*,*,#156,.F.);
#93=ORIENTED_EDGE('',*,*,#181,.T.);
#94=ORIENTED_EDGE('',*,*,#182,.T.);
#95=ORIENTED_EDGE('',*,*,#183,.T.);
#96=ORIENTED_EDGE('',*,*,#167,.F.);
#97=ORIENTED_EDGE('',*,*,#184,.F.);
#98=ORIENTED_EDGE('',*,*,#185,.T.);
#99=ORIENTED_EDGE('',*,*,#186,.T.);
#100=ORIENTED_EDGE('',*,*,#168,.F.);
#101=ORIENTED_EDGE('',*,*,#186,.F.);
#102=ORIENTED_EDGE('',*,*,#187,.T.);
#103=ORIENTED_EDGE('',*,*,#188,.T.);
#104=ORIENTED_EDGE('',*,*,#169,.F.);
#105=ORIENTED_EDGE('',*,*,#188,.F.);
#106=ORIENTED_EDGE('',*,*,#189,.T.);
#107=ORIENTED_EDGE('',*,*,#190,.T.);
#108=ORIENTED_EDGE('',*,*,#160,.F.);
#109=ORIENTED_EDGE('',*,*,#190,.F.);
#110=ORIENTED_EDGE('',*,*,#191,.T.);
#111=ORIENTED_EDGE('',*,*,#192,.T.);
#112=ORIENTED_EDGE('',*,*,#155,.F.);
#113=ORIENTED_EDGE('',*,*,#161,.F.);
#114=ORIENTED_EDGE('',*,*,#192,.F.);
#115=ORIENTED_EDGE('',*,*,#193,.T.);
#116=ORIENTED_EDGE('',*,*,#194,.T.);
#117=ORIENTED_EDGE('',*,*,#181,.F.);
#118=ORIENTED_EDGE('',*,*,#157,.F.);
#119=ORIENTED_EDGE('',*,*,#183,.F.);
#120=ORIENTED_EDGE('',*,*,#195,.F.);
#121=ORIENTED_EDGE('',*,*,#196,.T.);
#122=ORIENTED_EDGE('',*,*,#197,.T.);
#123=ORIENTED_EDGE('',*,*,#165,.F.);
#124=ORIENTED_EDGE('',*,*,#166,.F.);
#125=ORIENTED_EDGE('',*,*,#197,.F.);
#126=ORIENTED_EDGE('',*,*,#198,.T.);
#127=ORIENTED_EDGE('',*,*,#184,.T.);
#128=ORIENTED_EDGE('',*,*,#182,.F.);
#129=ORIENTED_EDGE('',*,*,#194,.F.);
#130=ORIENTED_EDGE('',*,*,#199,.T.);
#131=ORIENTED_EDGE('',*,*,#195,.T.);
#132=ORIENTED_EDGE('',*,*,#185,.F.);
#133=ORIENTED_EDGE('',*,*,#198,.F.);
#134=ORIENTED_EDGE('',*,*,#196,.F.);
#135=ORIENTED_EDGE('',*,*,#199,.F.);
#136=ORIENTED_EDGE('',*,*,#193,.F.);
#137=ORIENTED_EDGE('',*,*,#191,.F.);
#138=ORIENTED_EDGE('',*,*,#189,.F.);
#139=ORIENTED_EDGE('',*,*,#187,.F.);
#140=EDGE_CURVE('',#200,#201,#240,.T.);
#141=EDGE_CURVE('',#202,#201,#241,.T.);
#142=EDGE_CURVE('',#203,#202,#242,.T.);
#143=EDGE_CURVE('',#203,#200,#243,.T.);
#144=EDGE_CURVE('',#201,#204,#244,.T.);
#145=EDGE_CURVE('',#204,#205,#245,.T.);
#146=EDGE_CURVE('',#205,#206,#246,.T.);
#147=EDGE_CURVE('',#206,#207,#247,.T.);
#148=EDGE_CURVE('',#207,#208,#248,.T.);
#149=EDGE_CURVE('',#209,#208,#249,.T.);
#150=EDGE_CURVE('',#202,#209,#250,.T.);
#151=EDGE_CURVE('',#208,#210,#251,.T.);
#152=EDGE_CURVE('',#211,#210,#252,.T.);
#153=EDGE_CURVE('',#209,#211,#253,.T.);
#154=EDGE_CURVE('',#210,#212,#254,.T.);
#155=EDGE_CURVE('',#212,#213,#255,.T.);
#156=EDGE_CURVE('',#213,#214,#256,.T.);
#157=EDGE_CURVE('',#214,#215,#257,.T.);
#158=EDGE_CURVE('',#215,#200,#258,.T.);
#159=EDGE_CURVE('',#211,#203,#259,.T.);
#160=EDGE_CURVE('',#216,#217,#260,.T.);
#161=EDGE_CURVE('',#217,#212,#261,.T.);
#162=EDGE_CURVE('',#207,#218,#262,.T.);
#163=EDGE_CURVE('',#218,#219,#263,.T.);
#164=EDGE_CURVE('',#219,#204,#264,.T.);
#165=EDGE_CURVE('',#215,#220,#265,.T.);
#166=EDGE_CURVE('',#220,#221,#266,.T.);
#167=EDGE_CURVE('',#221,#222,#267,.T.);
#168=EDGE_CURVE('',#222,#223,#268,.T.);
#169=EDGE_CURVE('',#223,#216,#269,.T.);
#170=EDGE_CURVE('',#205,#224,#270,.T.);
#171=EDGE_CURVE('',#224,#225,#271,.T.);
#172=EDGE_CURVE('',#225,#206,#272,.T.);
#173=EDGE_CURVE('',#226,#218,#273,.T.);
#174=EDGE_CURVE('',#226,#227,#274,.T.);
#175=EDGE_CURVE('',#227,#219,#275,.T.);
#176=EDGE_CURVE('',#227,#228,#276,.T.);
#177=EDGE_CURVE('',#228,#224,#277,.T.);
#178=EDGE_CURVE('',#229,#225,#278,.T.);
#179=EDGE_CURVE('',#229,#226,#279,.T.);
#180=EDGE_CURVE('',#228,#229,#280,.T.);
#181=EDGE_CURVE('',#213,#230,#281,.T.);
#182=EDGE_CURVE('',#230,#231,#282,.T.);
#183=EDGE_CURVE('',#231,#214,#283,.T.);
#184=EDGE_CURVE('',#232,#221,#284,.T.);
#185=EDGE_CURVE('',#232,#233,#285,.T.);
#186=EDGE_CURVE('',#233,#222,#286,.T.);
#187=EDGE_CURVE('',#233,#234,#287,.T.);
#188=EDGE_CURVE('',#234,#223,#288,.T.);
#189=EDGE_CURVE('',#234,#235,#289,.T.);
#190=EDGE_CURVE('',#235,#216,#290,.T.);
#191=EDGE_CURVE('',#235,#236,#291,.T.);
#192=EDGE_CURVE('',#236,#217,#292,.T.);
#193=EDGE_CURVE('',#236,#237,#293,.T.);
#194=EDGE_CURVE('',#237,#230,#294,.T.);
#195=EDGE_CURVE('',#238,#231,#295,.T.);
#196=EDGE_CURVE('',#238,#239,#296,.T.);
#197=EDGE_CURVE('',#239,#220,#297,.T.);
#198=EDGE_CURVE('',#239,#232,#298,.T.);
#199=EDGE_CURVE('',#237,#238,#299,.T.);
#200=VERTEX_POINT('',#740);
#201=VERTEX_POINT('',#741);
#202=VERTEX_POINT('',#743);
#203=VERTEX_POINT('',#745);
#204=VERTEX_POINT('',#749);
#205=VERTEX_POINT('',#751);
#206=VERTEX_POINT('',#753);
#207=VERTEX_POINT('',#755);
#208=VERTEX_POINT('',#757);
#209=VERTEX_POINT('',#759);
#210=VERTEX_POINT('',#763);
#211=VERTEX_POINT('',#765);
#212=VERTEX_POINT('',#769);
#213=VERTEX_POINT('',#771);
#214=VERTEX_POINT('',#773);
#215=VERTEX_POINT('',#775);
#216=VERTEX_POINT('',#781);
#217=VERTEX_POINT('',#782);
#218=VERTEX_POINT('',#785);
#219=VERTEX_POINT('',#787);
#220=VERTEX_POINT('',#790);
#221=VERTEX_POINT('',#792);
#222=VERTEX_POINT('',#794);
#223=VERTEX_POINT('',#796);
#224=VERTEX_POINT('',#800);
#225=VERTEX_POINT('',#802);
#226=VERTEX_POINT('',#806);
#227=VERTEX_POINT('',#808);
#228=VERTEX_POINT('',#812);
#229=VERTEX_POINT('',#816);
#230=VERTEX_POINT('',#823);
#231=VERTEX_POINT('',#825);
#232=VERTEX_POINT('',#829);
#233=VERTEX_POINT('',#831);
#234=VERTEX_POINT('',#835);
#235=VERTEX_POINT('',#839);
#236=VERTEX_POINT('',#843);
#237=VERTEX_POINT('',#847);
#238=VERTEX_POINT('',#851);
#239=VERTEX_POINT('',#853);
#240=LINE('',#739,#300);
#241=LINE('',#742,#301);
#242=LINE('',#744,#302);
#243=LINE('',#746,#303);
#244=LINE('',#748,#304);
#245=LINE('',#750,#305);
#246=LINE('',#752,#306);
#247=LINE('',#754,#307);
#248=LINE('',#756,#308);
#249=LINE('',#758,#309);
#250=LINE('',#760,#310);
#251=LINE('',#762,#311);
#252=LINE('',#764,#312);
#253=LINE('',#766,#313);
#254=LINE('',#768,#314);
#255=LINE('',#770,#315);
#256=LINE('',#772,#316);
#257=LINE('',#774,#317);
#258=LINE('',#776,#318);
#259=LINE('',#777,#319);
#260=LINE('',#780,#320);
#261=LINE('',#783,#321);
#262=LINE('',#784,#322);
#263=LINE('',#786,#323);
#264=LINE('',#788,#324);
#265=LINE('',#789,#325);
#266=LINE('',#791,#326);
#267=LINE('',#793,#327);
#268=LINE('',#795,#328);
#269=LINE('',#797,#329);
#270=LINE('',#799,#330);
#271=LINE('',#801,#331);
#272=LINE('',#803,#332);
#273=LINE('',#805,#333);
#274=LINE('',#807,#334);
#275=LINE('',#809,#335);
#276=LINE('',#811,#336);
#277=LINE('',#813,#337);
#278=LINE('',#815,#338);
#279=LINE('',#817,#339);
#280=LINE('',#819,#340);
#281=LINE('',#822,#341);
#282=LINE('',#824,#342);
#283=LINE('',#826,#343);
#284=LINE('',#828,#344);
#285=LINE('',#830,#345);
#286=LINE('',#832,#346);
#287=LINE('',#834,#347);
#288=LINE('',#836,#348);
#289=LINE('',#838,#349);
#290=LINE('',#840,#350);
#291=LINE('',#842,#351);
#292=LINE('',#844,#352);
#293=LINE('',#846,#353);
#294=LINE('',#848,#354);
#295=LINE('',#850,#355);
#296=LINE('',#852,#356);
#297=LINE('',#854,#357);
#298=LINE('',#856,#358);
#299=LINE('',#858,#359);
#300=VECTOR('',#635,1000.);
#301=VECTOR('',#636,1000.);
#302=VECTOR('',#637,1000.);
#303=VECTOR('',#638,1000.);
#304=VECTOR('',#641,1000.);
#305=VECTOR('',#642,1000.);
#306=VECTOR('',#643,1000.);
#307=VECTOR('',#644,1000.);
#308=VECTOR('',#645,1000.);
#309=VECTOR('',#646,1000.);
#310=VECTOR('',#647,1000.);
#311=VECTOR('',#650,1000.);
#312=VECTOR('',#651,1000.);
#313=VECTOR('',#652,1000.);
#314=VECTOR('',#655,1000.);
#315=VECTOR('',#656,1000.);
#316=VECTOR('',#657,1000.);
#317=VECTOR('',#658,1000.);
#318=VECTOR('',#659,1000.);
#319=VECTOR('',#660,1000.);
#320=VECTOR('',#665,1000.);
#321=VECTOR('',#666,1000.);
#322=VECTOR('',#667,1000.);
#323=VECTOR('',#668,1000.);
#324=VECTOR('',#669,1000.);
#325=VECTOR('',#670,1000.);
#326=VECTOR('',#671,1000.);
#327=VECTOR('',#672,1000.);
#328=VECTOR('',#673,1000.);
#329=VECTOR('',#674,1000.);
#330=VECTOR('',#677,1000.);
#331=VECTOR('',#678,1000.);
#332=VECTOR('',#679,1000.);
#333=VECTOR('',#682,1000.);
#334=VECTOR('',#683,1000.);
#335=VECTOR('',#684,1000.);
#336=VECTOR('',#687,1000.);
#337=VECTOR('',#688,1000.);
#338=VECTOR('',#691,1000.);
#339=VECTOR('',#692,1000.);
#340=VECTOR('',#695,1000.);
#341=VECTOR('',#700,1000.);
#342=VECTOR('',#701,1000.);
#343=VECTOR('',#702,1000.);
#344=VECTOR('',#705,1000.);
#345=VECTOR('',#706,1000.);
#346=VECTOR('',#707,1000.);
#347=VECTOR('',#710,1000.);
#348=VECTOR('',#711,1000.);
#349=VECTOR('',#714,1000.);
#350=VECTOR('',#715,1000.);
#351=VECTOR('',#718,1000.);
#352=VECTOR('',#719,1000.);
#353=VECTOR('',#722,1000.);
#354=VECTOR('',#723,1000.);
#355=VECTOR('',#726,1000.);
#356=VECTOR('',#727,1000.);
#357=VECTOR('',#728,1000.);
#358=VECTOR('',#731,1000.);
#359=VECTOR('',#734,1000.);
#360=EDGE_LOOP('',(#20,#21,#22,#23));
#361=EDGE_LOOP('',(#24,#25,#26,#27,#28,#29,#30,#31));
#362=EDGE_LOOP('',(#32,#33,#34,#35));
#363=EDGE_LOOP('',(#36,#37,#38,#39,#40,#41,#42,#43));
#364=EDGE_LOOP('',(#44,#45,#46,#47));
#365=EDGE_LOOP('',(#48,#49,#50,#51,#52,#53,#54,#55,#56,#57,#58,#59,#60,
#61,#62,#63));
#366=EDGE_LOOP('',(#64,#65,#66,#67));
#367=EDGE_LOOP('',(#68,#69,#70,#71));
#368=EDGE_LOOP('',(#72,#73,#74,#75,#76,#77));
#369=EDGE_LOOP('',(#78,#79,#80,#81,#82,#83));
#370=EDGE_LOOP('',(#84,#85,#86,#87));
#371=EDGE_LOOP('',(#88,#89,#90,#91));
#372=EDGE_LOOP('',(#92,#93,#94,#95));
#373=EDGE_LOOP('',(#96,#97,#98,#99));
#374=EDGE_LOOP('',(#100,#101,#102,#103));
#375=EDGE_LOOP('',(#104,#105,#106,#107));
#376=EDGE_LOOP('',(#108,#109,#110,#111));
#377=EDGE_LOOP('',(#112,#113,#114,#115,#116,#117));
#378=EDGE_LOOP('',(#118,#119,#120,#121,#122,#123));
#379=EDGE_LOOP('',(#124,#125,#126,#127));
#380=EDGE_LOOP('',(#128,#129,#130,#131));
#381=EDGE_LOOP('',(#132,#133,#134,#135,#136,#137,#138,#139));
#382=FACE_BOUND('',#360,.T.);
#383=FACE_BOUND('',#361,.T.);
#384=FACE_BOUND('',#362,.T.);
#385=FACE_BOUND('',#363,.T.);
#386=FACE_BOUND('',#364,.T.);
#387=FACE_BOUND('',#365,.T.);
#388=FACE_BOUND('',#366,.T.);
#389=FACE_BOUND('',#367,.T.);
#390=FACE_BOUND('',#368,.T.);
#391=FACE_BOUND('',#369,.T.);
#392=FACE_BOUND('',#370,.T.);
#393=FACE_BOUND('',#371,.T.);
#394=FACE_BOUND('',#372,.T.);
#395=FACE_BOUND('',#373,.T.);
#396=FACE_BOUND('',#374,.T.);
#397=FACE_BOUND('',#375,.T.);
#398=FACE_BOUND('',#376,.T.);
#399=FACE_BOUND('',#377,.T.);
#400=FACE_BOUND('',#378,.T.);
#401=FACE_BOUND('',#379,.T.);
#402=FACE_BOUND('',#380,.T.);
#403=FACE_BOUND('',#381,.T.);
#404=PLANE('',#609);
#405=PLANE('',#610);
#406=PLANE('',#611);
#407=PLANE('',#612);
#408=PLANE('',#613);
#409=PLANE('',#614);
#410=PLANE('',#615);
#411=PLANE('',#616);
#412=PLANE('',#617);
#413=PLANE('',#618);
#414=PLANE('',#619);
#415=PLANE('',#620);
#416=PLANE('',#621);
#417=PLANE('',#622);
#418=PLANE('',#623);
#419=PLANE('',#624);
#420=PLANE('',#625);
#421=PLANE('',#626);
#422=PLANE('',#627);
#423=PLANE('',#628);
#424=PLANE('',#629);
#425=PLANE('',#630);
#426=STYLED_ITEM('',(#448),#582);
#427=STYLED_ITEM('',(#449),#583);
#428=STYLED_ITEM('',(#450),#584);
#429=STYLED_ITEM('',(#451),#585);
#430=STYLED_ITEM('',(#452),#586);
#431=STYLED_ITEM('',(#453),#587);
#432=STYLED_ITEM('',(#454),#588);
#433=STYLED_ITEM('',(#455),#589);
#434=STYLED_ITEM('',(#456),#590);
#435=STYLED_ITEM('',(#457),#591);
#436=STYLED_ITEM('',(#458),#592);
#437=STYLED_ITEM('',(#459),#593);
#438=STYLED_ITEM('',(#460),#594);
#439=STYLED_ITEM('',(#461),#595);
#440=STYLED_ITEM('',(#462),#596);
#441=STYLED_ITEM('',(#463),#597);
#442=STYLED_ITEM('',(#464),#598);
#443=STYLED_ITEM('',(#465),#599);
#444=STYLED_ITEM('',(#466),#600);
#445=STYLED_ITEM('',(#467),#601);
#446=STYLED_ITEM('',(#468),#602);
#447=STYLED_ITEM('',(#469),#603);
#448=PRESENTATION_STYLE_ASSIGNMENT((#470));
#449=PRESENTATION_STYLE_ASSIGNMENT((#471));
#450=PRESENTATION_STYLE_ASSIGNMENT((#472));
#451=PRESENTATION_STYLE_ASSIGNMENT((#473));
#452=PRESENTATION_STYLE_ASSIGNMENT((#474));
#453=PRESENTATION_STYLE_ASSIGNMENT((#475));
#454=PRESENTATION_STYLE_ASSIGNMENT((#476));
#455=PRESENTATION_STYLE_ASSIGNMENT((#477));
#456=PRESENTATION_STYLE_ASSIGNMENT((#478));
#457=PRESENTATION_STYLE_ASSIGNMENT((#479));
#458=PRESENTATION_STYLE_ASSIGNMENT((#480));
#459=PRESENTATION_STYLE_ASSIGNMENT((#481));
#460=PRESENTATION_STYLE_ASSIGNMENT((#482));
#461=PRESENTATION_STYLE_ASSIGNMENT((#483));
#462=PRESENTATION_STYLE_ASSIGNMENT((#484));
#463=PRESENTATION_STYLE_ASSIGNMENT((#485));
#464=PRESENTATION_STYLE_ASSIGNMENT((#486));
#465=PRESENTATION_STYLE_ASSIGNMENT((#487));
#466=PRESENTATION_STYLE_ASSIGNMENT((#488));
#467=PRESENTATION_STYLE_ASSIGNMENT((#489));
#468=PRESENTATION_STYLE_ASSIGNMENT((#490));
#469=PRESENTATION_STYLE_ASSIGNMENT((#491));
#470=SURFACE_STYLE_USAGE(.BOTH.,#492);
#471=SURFACE_STYLE_USAGE(.BOTH.,#493);
#472=SURFACE_STYLE_USAGE(.BOTH.,#494);
#473=SURFACE_STYLE_USAGE(.BOTH.,#495);
#474=SURFACE_STYLE_USAGE(.BOTH.,#496);
#475=SURFACE_STYLE_USAGE(.BOTH.,#497);
#476=SURFACE_STYLE_USAGE(.BOTH.,#498);
#477=SURFACE_STYLE_USAGE(.BOTH.,#499);
#478=SURFACE_STYLE_USAGE(.BOTH.,#500);
#479=SURFACE_STYLE_USAGE(.BOTH.,#501);
#480=SURFACE_STYLE_USAGE(.BOTH.,#502);
#481=SURFACE_STYLE_USAGE(.BOTH.,#503);
#482=SURFACE_STYLE_USAGE(.BOTH.,#504);
#483=SURFACE_STYLE_USAGE(.BOTH.,#505);
#484=SURFACE_STYLE_USAGE(.BOTH.,#506);
#485=SURFACE_STYLE_USAGE(.BOTH.,#507);
#486=SURFACE_STYLE_USAGE(.BOTH.,#508);
#487=SURFACE_STYLE_USAGE(.BOTH.,#509);
#488=SURFACE_STYLE_USAGE(.BOTH.,#510);
#489=SURFACE_STYLE_USAGE(.BOTH.,#511);
#490=SURFACE_STYLE_USAGE(.BOTH.,#512);
#491=SURFACE_STYLE_USAGE(.BOTH.,#513);
#492=SURFACE_SIDE_STYLE('',(#514));
#493=SURFACE_SIDE_STYLE('',(#515));
#494=SURFACE_SIDE_STYLE('',(#516));
#495=SURFACE_SIDE_STYLE('',(#517));
#496=SURFACE_SIDE_STYLE('',(#518));
#497=SURFACE_SIDE_STYLE('',(#519));
#498=SURFACE_SIDE_STYLE('',(#520));
#499=SURFACE_SIDE_STYLE('',(#521));
#500=SURFACE_SIDE_STYLE('',(#522));
#501=SURFACE_SIDE_STYLE('',(#523));
#502=SURFACE_SIDE_STYLE('',(#524));
#503=SURFACE_SIDE_STYLE('',(#525));
#504=SURFACE_SIDE_STYLE('',(#526));
#505=SURFACE_SIDE_STYLE('',(#527));
#506=SURFACE_SIDE_STYLE('',(#528));
#507=SURFACE_SIDE_STYLE('',(#529));
#508=SURFACE_SIDE_STYLE('',(#530));
#509=SURFACE_SIDE_STYLE('',(#531));
#510=SURFACE_SIDE_STYLE('',(#532));
#511=SURFACE_SIDE_STYLE('',(#533));
#512=SURFACE_SIDE_STYLE('',(#534));
#513=SURFACE_SIDE_STYLE('',(#535));
#514=SURFACE_STYLE_FILL_AREA(#536);
#515=SURFACE_STYLE_FILL_AREA(#537);
#516=SURFACE_STYLE_FILL_AREA(#538);
#517=SURFACE_STYLE_FILL_AREA(#539);
#518=SURFACE_STYLE_FILL_AREA(#540);
#519=SURFACE_STYLE_FILL_AREA(#541);
#520=SURFACE_STYLE_FILL_AREA(#542);
#521=SURFACE_STYLE_FILL_AREA(#543);
#522=SURFACE_STYLE_FILL_AREA(#544);
#523=SURFACE_STYLE_FILL_AREA(#545);
#524=SURFACE_STYLE_FILL_AREA(#546);
#525=SURFACE_STYLE_FILL_AREA(#547);
#526=SURFACE_STYLE_FILL_AREA(#548);
#527=SURFACE_STYLE_FILL_AREA(#549);
#528=SURFACE_STYLE_FILL_AREA(#550);
#529=SURFACE_STYLE_FILL_AREA(#551);
#530=SURFACE_STYLE_FILL_AREA(#552);
#531=SURFACE_STYLE_FILL_AREA(#553);
#532=SURFACE_STYLE_FILL_AREA(#554);
#533=SURFACE_STYLE_FILL_AREA(#555);
#534=SURFACE_STYLE_FILL_AREA(#556);
#535=SURFACE_STYLE_FILL_AREA(#557);
#536=FILL_AREA_STYLE('',(#558));
#537=FILL_AREA_STYLE('',(#559));
#538=FILL_AREA_STYLE('',(#560));
#539=FILL_AREA_STYLE('',(#561));
#540=FILL_AREA_STYLE('',(#562));
#541=FILL_AREA_STYLE('',(#563));
#542=FILL_AREA_STYLE('',(#564));
#543=FILL_AREA_STYLE('',(#565));
#544=FILL_AREA_STYLE('',(#566));
#545=FILL_AREA_STYLE('',(#567));
#546=FILL_AREA_STYLE('',(#568));
#547=FILL_AREA_STYLE('',(#569));
#548=FILL_AREA_STYLE('',(#570));
#549=FILL_AREA_STYLE('',(#571));
#550=FILL_AREA_STYLE('',(#572));
#551=FILL_AREA_STYLE('',(#573));
#552=FILL_AREA_STYLE('',(#574));
#553=FILL_AREA_STYLE('',(#575));
#554=FILL_AREA_STYLE('',(#576));
#555=FILL_AREA_STYLE('',(#577));
#556=FILL_AREA_STYLE('',(#578));
#557=FILL_AREA_STYLE('',(#579));
#558=FILL_AREA_STYLE_COLOUR('',#580);
#559=FILL_AREA_STYLE_COLOUR('',#580);
#560=FILL_AREA_STYLE_COLOUR('',#580);
#561=FILL_AREA_STYLE_COLOUR('',#580);
#562=FILL_AREA_STYLE_COLOUR('',#580);
#563=FILL_AREA_STYLE_COLOUR('',#580);
#564=FILL_AREA_STYLE_COLOUR('',#581);
#565=FILL_AREA_STYLE_COLOUR('',#581);
#566=FILL_AREA_STYLE_COLOUR('',#581);
#567=FILL_AREA_STYLE_COLOUR('',#581);
#568=FILL_AREA_STYLE_COLOUR('',#581);
#569=FILL_AREA_STYLE_COLOUR('',#581);
#570=FILL_AREA_STYLE_COLOUR('',#581);
#571=FILL_AREA_STYLE_COLOUR('',#581);
#572=FILL_AREA_STYLE_COLOUR('',#581);
#573=FILL_AREA_STYLE_COLOUR('',#581);
#574=FILL_AREA_STYLE_COLOUR('',#581);
#575=FILL_AREA_STYLE_COLOUR('',#581);
#576=FILL_AREA_STYLE_COLOUR('',#581);
#577=FILL_AREA_STYLE_COLOUR('',#581);
#578=FILL_AREA_STYLE_COLOUR('',#581);
#579=FILL_AREA_STYLE_COLOUR('',#581);
#580=COLOUR_RGB('',0.200000002980232,0.200000002980232,0.200000002980232);
#581=COLOUR_RGB('',0.699999988079071,0.699999988079071,0.699999988079071);
#582=ADVANCED_FACE('',(#382),#404,.F.);
#583=ADVANCED_FACE('',(#383),#405,.F.);
#584=ADVANCED_FACE('',(#384),#406,.F.);
#585=ADVANCED_FACE('',(#385),#407,.F.);
#586=ADVANCED_FACE('',(#386),#408,.T.);
#587=ADVANCED_FACE('',(#387),#409,.F.);
#588=ADVANCED_FACE('',(#388),#410,.T.);
#589=ADVANCED_FACE('',(#389),#411,.T.);
#590=ADVANCED_FACE('',(#390),#412,.T.);
#591=ADVANCED_FACE('',(#391),#413,.T.);
#592=ADVANCED_FACE('',(#392),#414,.T.);
#593=ADVANCED_FACE('',(#393),#415,.F.);
#594=ADVANCED_FACE('',(#394),#416,.T.);
#595=ADVANCED_FACE('',(#395),#417,.T.);
#596=ADVANCED_FACE('',(#396),#418,.T.);
#597=ADVANCED_FACE('',(#397),#419,.T.);
#598=ADVANCED_FACE('',(#398),#420,.T.);
#599=ADVANCED_FACE('',(#399),#421,.T.);
#600=ADVANCED_FACE('',(#400),#422,.T.);
#601=ADVANCED_FACE('',(#401),#423,.T.);
#602=ADVANCED_FACE('',(#402),#424,.T.);
#603=ADVANCED_FACE('',(#403),#425,.F.);
#604=CLOSED_SHELL('',(#582,#583,#584,#585,#586,#587,#588,#589,#590,#591,
#592,#593,#594,#595,#596,#597,#598,#599,#600,#601,#602,#603));
#605=MANIFOLD_SOLID_BREP('',#604);
#606=SHAPE_DEFINITION_REPRESENTATION(#866,#607);
#607=SHAPE_REPRESENTATION('V7NM63HM3_I',(#608),#861);
#608=AXIS2_PLACEMENT_3D('',#737,#631,#632);
#609=AXIS2_PLACEMENT_3D('',#738,#633,#634);
#610=AXIS2_PLACEMENT_3D('',#747,#639,#640);
#611=AXIS2_PLACEMENT_3D('',#761,#648,#649);
#612=AXIS2_PLACEMENT_3D('',#767,#653,#654);
#613=AXIS2_PLACEMENT_3D('',#778,#661,#662);
#614=AXIS2_PLACEMENT_3D('',#779,#663,#664);
#615=AXIS2_PLACEMENT_3D('',#798,#675,#676);
#616=AXIS2_PLACEMENT_3D('',#804,#680,#681);
#617=AXIS2_PLACEMENT_3D('',#810,#685,#686);
#618=AXIS2_PLACEMENT_3D('',#814,#689,#690);
#619=AXIS2_PLACEMENT_3D('',#818,#693,#694);
#620=AXIS2_PLACEMENT_3D('',#820,#696,#697);
#621=AXIS2_PLACEMENT_3D('',#821,#698,#699);
#622=AXIS2_PLACEMENT_3D('',#827,#703,#704);
#623=AXIS2_PLACEMENT_3D('',#833,#708,#709);
#624=AXIS2_PLACEMENT_3D('',#837,#712,#713);
#625=AXIS2_PLACEMENT_3D('',#841,#716,#717);
#626=AXIS2_PLACEMENT_3D('',#845,#720,#721);
#627=AXIS2_PLACEMENT_3D('',#849,#724,#725);
#628=AXIS2_PLACEMENT_3D('',#855,#729,#730);
#629=AXIS2_PLACEMENT_3D('',#857,#732,#733);
#630=AXIS2_PLACEMENT_3D('',#859,#735,#736);
#631=DIRECTION('',(0.,0.,1.));
#632=DIRECTION('',(1.,0.,0.));
#633=DIRECTION('',(0.,1.,0.));
#634=DIRECTION('',(0.,0.,1.));
#635=DIRECTION('',(1.,0.,0.));
#636=DIRECTION('',(0.,0.,-1.));
#637=DIRECTION('',(1.,0.,0.));
#638=DIRECTION('',(0.,0.,-1.));
#639=DIRECTION('',(-1.,0.,0.));
#640=DIRECTION('',(0.,0.,1.));
#641=DIRECTION('',(0.,1.,0.));
#642=DIRECTION('',(0.,0.,1.));
#643=DIRECTION('',(0.,1.,0.));
#644=DIRECTION('',(0.,0.,-1.));
#645=DIRECTION('',(0.,1.,0.));
#646=DIRECTION('',(0.,0.,-1.));
#647=DIRECTION('',(0.,1.,0.));
#648=DIRECTION('',(0.,-1.,0.));
#649=DIRECTION('',(0.,0.,-1.));
#650=DIRECTION('',(-1.,0.,0.));
#651=DIRECTION('',(0.,0.,-1.));
#652=DIRECTION('',(-1.,0.,0.));
#653=DIRECTION('',(1.,0.,0.));
#654=DIRECTION('',(0.,0.,-1.));
#655=DIRECTION('',(0.,-1.,0.));
#656=DIRECTION('',(0.,0.,1.));
#657=DIRECTION('',(0.,-1.,0.));
#658=DIRECTION('',(0.,0.,-1.));
#659=DIRECTION('',(0.,-1.,0.));
#660=DIRECTION('',(0.,-1.,0.));
#661=DIRECTION('',(0.,0.,1.));
#662=DIRECTION('',(1.,0.,0.));
#663=DIRECTION('',(0.,0.,1.));
#664=DIRECTION('',(1.,0.,0.));
#665=DIRECTION('',(0.,-1.,0.));
#666=DIRECTION('',(-1.,0.,0.));
#667=DIRECTION('',(-1.,0.,0.));
#668=DIRECTION('',(2.85316361180396E-16,-1.,0.));
#669=DIRECTION('',(1.,0.,0.));
#670=DIRECTION('',(1.,0.,0.));
#671=DIRECTION('',(0.,-1.,0.));
#672=DIRECTION('',(1.,0.,0.));
#673=DIRECTION('',(0.,1.,0.));
#674=DIRECTION('',(-1.,0.,0.));
#675=DIRECTION('',(0.,0.,1.));
#676=DIRECTION('',(1.,0.,0.));
#677=DIRECTION('',(1.,0.,0.));
#678=DIRECTION('',(0.,1.,0.));
#679=DIRECTION('',(-1.,0.,0.));
#680=DIRECTION('',(-1.,-2.85316361180396E-16,0.));
#681=DIRECTION('',(2.85316361180396E-16,-1.,0.));
#682=DIRECTION('',(0.,0.,1.));
#683=DIRECTION('',(2.85316361180396E-16,-1.,0.));
#684=DIRECTION('',(0.,0.,1.));
#685=DIRECTION('',(0.,-1.,0.));
#686=DIRECTION('',(0.,0.,-1.));
#687=DIRECTION('',(1.,0.,0.));
#688=DIRECTION('',(0.,0.,1.));
#689=DIRECTION('',(0.,1.,0.));
#690=DIRECTION('',(0.,0.,1.));
#691=DIRECTION('',(0.,0.,1.));
#692=DIRECTION('',(-1.,0.,0.));
#693=DIRECTION('',(1.,0.,0.));
#694=DIRECTION('',(0.,0.,-1.));
#695=DIRECTION('',(0.,1.,0.));
#696=DIRECTION('',(0.,0.,1.));
#697=DIRECTION('',(1.,0.,0.));
#698=DIRECTION('',(0.,0.,1.));
#699=DIRECTION('',(1.,0.,0.));
#700=DIRECTION('',(-1.,0.,0.));
#701=DIRECTION('',(-3.61400724161835E-16,-1.,0.));
#702=DIRECTION('',(1.,0.,0.));
#703=DIRECTION('',(0.,-1.,0.));
#704=DIRECTION('',(0.,0.,-1.));
#705=DIRECTION('',(0.,0.,1.));
#706=DIRECTION('',(1.,0.,0.));
#707=DIRECTION('',(0.,0.,1.));
#708=DIRECTION('',(1.,0.,0.));
#709=DIRECTION('',(0.,0.,-1.));
#710=DIRECTION('',(2.36984081417597E-16,1.,0.));
#711=DIRECTION('',(0.,0.,1.));
#712=DIRECTION('',(0.,1.,0.));
#713=DIRECTION('',(0.,0.,1.));
#714=DIRECTION('',(-1.,0.,0.));
#715=DIRECTION('',(0.,0.,1.));
#716=DIRECTION('',(-1.,0.,0.));
#717=DIRECTION('',(0.,0.,1.));
#718=DIRECTION('',(0.,-1.,0.));
#719=DIRECTION('',(0.,0.,1.));
#720=DIRECTION('',(0.,1.,0.));
#721=DIRECTION('',(0.,0.,1.));
#722=DIRECTION('',(-1.,0.,0.));
#723=DIRECTION('',(0.,0.,1.));
#724=DIRECTION('',(0.,-1.,0.));
#725=DIRECTION('',(0.,0.,-1.));
#726=DIRECTION('',(0.,0.,1.));
#727=DIRECTION('',(1.,0.,0.));
#728=DIRECTION('',(0.,0.,1.));
#729=DIRECTION('',(-1.,0.,0.));
#730=DIRECTION('',(0.,0.,1.));
#731=DIRECTION('',(0.,-1.,0.));
#732=DIRECTION('',(-1.,3.61400724161835E-16,0.));
#733=DIRECTION('',(-3.61400724161835E-16,-1.,0.));
#734=DIRECTION('',(-3.61400724161835E-16,-1.,0.));
#735=DIRECTION('',(0.,0.,1.));
#736=DIRECTION('',(1.,0.,0.));
#737=CARTESIAN_POINT('',(0.,0.,0.));
#738=CARTESIAN_POINT('',(-1.925,-1.05,0.85));
#739=CARTESIAN_POINT('',(-1.925,-1.05,0.));
#740=CARTESIAN_POINT('',(-1.925,-1.05,0.));
#741=CARTESIAN_POINT('',(1.925,-1.05,0.));
#742=CARTESIAN_POINT('',(1.925,-1.05,0.85));
#743=CARTESIAN_POINT('',(1.925,-1.05,0.85));
#744=CARTESIAN_POINT('',(-1.925,-1.05,0.85));
#745=CARTESIAN_POINT('',(-1.925,-1.05,0.85));
#746=CARTESIAN_POINT('',(-1.925,-1.05,0.85));
#747=CARTESIAN_POINT('',(1.925,-1.05,0.85));
#748=CARTESIAN_POINT('',(1.925,-1.05,0.));
#749=CARTESIAN_POINT('',(1.925,-0.38,0.));
#750=CARTESIAN_POINT('',(1.925,-0.38,0.85));
#751=CARTESIAN_POINT('',(1.925,-0.38,0.15));
#752=CARTESIAN_POINT('',(1.925,-1.05,0.15));
#753=CARTESIAN_POINT('',(1.925,0.38,0.15));
#754=CARTESIAN_POINT('',(1.925,0.38,0.85));
#755=CARTESIAN_POINT('',(1.925,0.38,0.));
#756=CARTESIAN_POINT('',(1.925,-1.05,0.));
#757=CARTESIAN_POINT('',(1.925,1.05,0.));
#758=CARTESIAN_POINT('',(1.925,1.05,0.85));
#759=CARTESIAN_POINT('',(1.925,1.05,0.85));
#760=CARTESIAN_POINT('',(1.925,-1.05,0.85));
#761=CARTESIAN_POINT('',(1.925,1.05,0.85));
#762=CARTESIAN_POINT('',(1.925,1.05,0.));
#763=CARTESIAN_POINT('',(-1.925,1.05,0.));
#764=CARTESIAN_POINT('',(-1.925,1.05,0.85));
#765=CARTESIAN_POINT('',(-1.925,1.05,0.85));
#766=CARTESIAN_POINT('',(1.925,1.05,0.85));
#767=CARTESIAN_POINT('',(-1.925,1.05,0.85));
#768=CARTESIAN_POINT('',(-1.925,1.05,0.));
#769=CARTESIAN_POINT('',(-1.925,0.6,0.));
#770=CARTESIAN_POINT('',(-1.925,0.6,0.85));
#771=CARTESIAN_POINT('',(-1.925,0.6,0.15));
#772=CARTESIAN_POINT('',(-1.925,1.05,0.15));
#773=CARTESIAN_POINT('',(-1.925,-0.6,0.15));
#774=CARTESIAN_POINT('',(-1.925,-0.6,0.85));
#775=CARTESIAN_POINT('',(-1.925,-0.6,0.));
#776=CARTESIAN_POINT('',(-1.925,1.05,0.));
#777=CARTESIAN_POINT('',(-1.925,1.05,0.85));
#778=CARTESIAN_POINT('',(0.,0.,0.85));
#779=CARTESIAN_POINT('',(0.,0.,0.));
#780=CARTESIAN_POINT('',(-1.58763816480805,0.,0.));
#781=CARTESIAN_POINT('',(-1.58763816480805,0.915,0.));
#782=CARTESIAN_POINT('',(-1.58763816480805,0.6,0.));
#783=CARTESIAN_POINT('',(0.,0.6,0.));
#784=CARTESIAN_POINT('',(0.,0.38,0.));
#785=CARTESIAN_POINT('',(1.33382569460428,0.38,0.));
#786=CARTESIAN_POINT('',(1.33382569460428,3.80562293633407E-16,0.));
#787=CARTESIAN_POINT('',(1.33382569460428,-0.38,0.));
#788=CARTESIAN_POINT('',(0.,-0.38,0.));
#789=CARTESIAN_POINT('',(0.,-0.6,0.));
#790=CARTESIAN_POINT('',(-1.58763816480805,-0.6,0.));
#791=CARTESIAN_POINT('',(-1.58763816480805,0.,0.));
#792=CARTESIAN_POINT('',(-1.58763816480805,-0.915,0.));
#793=CARTESIAN_POINT('',(0.,-0.915,0.));
#794=CARTESIAN_POINT('',(0.525,-0.915,0.));
#795=CARTESIAN_POINT('',(0.525,0.,0.));
#796=CARTESIAN_POINT('',(0.525,0.915,0.));
#797=CARTESIAN_POINT('',(0.,0.915,0.));
#798=CARTESIAN_POINT('',(0.,0.,0.15));
#799=CARTESIAN_POINT('',(1.33382569460428,-0.38,0.15));
#800=CARTESIAN_POINT('',(1.93382569460428,-0.38,0.15));
#801=CARTESIAN_POINT('',(1.93382569460428,-0.38,0.15));
#802=CARTESIAN_POINT('',(1.93382569460428,0.38,0.15));
#803=CARTESIAN_POINT('',(1.93382569460428,0.38,0.15));
#804=CARTESIAN_POINT('',(1.33382569460428,0.38,-0.15));
#805=CARTESIAN_POINT('',(1.33382569460428,0.38,-0.15));
#806=CARTESIAN_POINT('',(1.33382569460428,0.38,-0.00447184246353801));
#807=CARTESIAN_POINT('',(1.33382569460428,0.38,-0.00447184246353801));
#808=CARTESIAN_POINT('',(1.33382569460428,-0.38,-0.00447184246353801));
#809=CARTESIAN_POINT('',(1.33382569460428,-0.38,-0.15));
#810=CARTESIAN_POINT('',(1.33382569460428,-0.38,-0.15));
#811=CARTESIAN_POINT('',(1.33382569460428,-0.38,-0.00447184246353801));
#812=CARTESIAN_POINT('',(1.93382569460428,-0.38,-0.00447184246353801));
#813=CARTESIAN_POINT('',(1.93382569460428,-0.38,-0.15));
#814=CARTESIAN_POINT('',(1.93382569460428,0.38,-0.15));
#815=CARTESIAN_POINT('',(1.93382569460428,0.38,-0.15));
#816=CARTESIAN_POINT('',(1.93382569460428,0.38,-0.00447184246353801));
#817=CARTESIAN_POINT('',(1.93382569460428,0.38,-0.00447184246353801));
#818=CARTESIAN_POINT('',(1.93382569460428,-0.38,-0.15));
#819=CARTESIAN_POINT('',(1.93382569460428,-0.38,-0.00447184246353801));
#820=CARTESIAN_POINT('',(0.,0.,-0.00447184246353801));
#821=CARTESIAN_POINT('',(0.,0.,0.15));
#822=CARTESIAN_POINT('',(-1.93763816480805,0.6,0.15));
#823=CARTESIAN_POINT('',(-1.93763816480805,0.6,0.15));
#824=CARTESIAN_POINT('',(-1.93763816480805,-0.6,0.15));
#825=CARTESIAN_POINT('',(-1.93763816480805,-0.6,0.15));
#826=CARTESIAN_POINT('',(-1.93763816480805,-0.6,0.15));
#827=CARTESIAN_POINT('',(-1.58763816480805,-0.915,-0.15));
#828=CARTESIAN_POINT('',(-1.58763816480805,-0.915,-0.15));
#829=CARTESIAN_POINT('',(-1.58763816480805,-0.915,-0.00447184246353801));
#830=CARTESIAN_POINT('',(-1.58763816480805,-0.915,-0.00447184246353801));
#831=CARTESIAN_POINT('',(0.525,-0.915,-0.00447184246353801));
#832=CARTESIAN_POINT('',(0.525,-0.915,-0.15));
#833=CARTESIAN_POINT('',(0.525,0.915,-0.15));
#834=CARTESIAN_POINT('',(0.525,-0.915,-0.00447184246353801));
#835=CARTESIAN_POINT('',(0.525,0.915,-0.00447184246353801));
#836=CARTESIAN_POINT('',(0.525,0.915,-0.15));
#837=CARTESIAN_POINT('',(-1.58763816480805,0.915,-0.15));
#838=CARTESIAN_POINT('',(-1.58763816480805,0.915,-0.00447184246353801));
#839=CARTESIAN_POINT('',(-1.58763816480805,0.915,-0.00447184246353801));
#840=CARTESIAN_POINT('',(-1.58763816480805,0.915,-0.15));
#841=CARTESIAN_POINT('',(-1.58763816480805,0.6,-0.15));
#842=CARTESIAN_POINT('',(-1.58763816480805,0.6,-0.00447184246353801));
#843=CARTESIAN_POINT('',(-1.58763816480805,0.6,-0.00447184246353801));
#844=CARTESIAN_POINT('',(-1.58763816480805,0.6,-0.15));
#845=CARTESIAN_POINT('',(-1.93763816480805,0.6,-0.15));
#846=CARTESIAN_POINT('',(-1.93763816480805,0.6,-0.00447184246353801));
#847=CARTESIAN_POINT('',(-1.93763816480805,0.6,-0.00447184246353801));
#848=CARTESIAN_POINT('',(-1.93763816480805,0.6,-0.15));
#849=CARTESIAN_POINT('',(-1.93763816480805,-0.6,-0.15));
#850=CARTESIAN_POINT('',(-1.93763816480805,-0.6,-0.15));
#851=CARTESIAN_POINT('',(-1.93763816480805,-0.6,-0.00447184246353801));
#852=CARTESIAN_POINT('',(-1.93763816480805,-0.6,-0.00447184246353801));
#853=CARTESIAN_POINT('',(-1.58763816480805,-0.6,-0.00447184246353801));
#854=CARTESIAN_POINT('',(-1.58763816480805,-0.6,-0.15));
#855=CARTESIAN_POINT('',(-1.58763816480805,-0.6,-0.15));
#856=CARTESIAN_POINT('',(-1.58763816480805,-0.6,-0.00447184246353801));
#857=CARTESIAN_POINT('',(-1.93763816480805,-0.6,-0.15));
#858=CARTESIAN_POINT('',(-1.93763816480805,-0.6,-0.00447184246353801));
#859=CARTESIAN_POINT('',(0.,0.,-0.00447184246353801));
#860=MECHANICAL_DESIGN_GEOMETRIC_PRESENTATION_REPRESENTATION('',(#426,#427,
#428,#429,#430,#431,#432,#433,#434,#435,#436,#437,#438,#439,#440,#441,#442,
#443,#444,#445,#446,#447),#861);
#861=(
GEOMETRIC_REPRESENTATION_CONTEXT(3)
GLOBAL_UNCERTAINTY_ASSIGNED_CONTEXT((#862))
GLOBAL_UNIT_ASSIGNED_CONTEXT((#865,#864,#863))
REPRESENTATION_CONTEXT('V7NM63HM3_I','TOP_LEVEL_ASSEMBLY_PART')
);
#862=UNCERTAINTY_MEASURE_WITH_UNIT(LENGTH_MEASURE(0.005),#865,
'DISTANCE_ACCURACY_VALUE','Maximum Tolerance applied to model');
#863=(
NAMED_UNIT(*)
SI_UNIT($,.STERADIAN.)
SOLID_ANGLE_UNIT()
);
#864=(
NAMED_UNIT(*)
PLANE_ANGLE_UNIT()
SI_UNIT($,.RADIAN.)
);
#865=(
LENGTH_UNIT()
NAMED_UNIT(*)
SI_UNIT(.MILLI.,.METRE.)
);
#866=PRODUCT_DEFINITION_SHAPE('','',#867);
#867=PRODUCT_DEFINITION('','',#869,#868);
#868=PRODUCT_DEFINITION_CONTEXT('',#875,'design');
#869=PRODUCT_DEFINITION_FORMATION_WITH_SPECIFIED_SOURCE('','',#871,
 .NOT_KNOWN.);
#870=PRODUCT_RELATED_PRODUCT_CATEGORY('','',(#871));
#871=PRODUCT('V7NM63HM3_I','V7NM63HM3_I','V7NM63HM3_I',(#873));
#872=PRODUCT_CATEGORY('','');
#873=PRODUCT_CONTEXT('',#875,'mechanical');
#874=APPLICATION_PROTOCOL_DEFINITION('international standard',
'automotive_design',2010,#875);
#875=APPLICATION_CONTEXT(
'core data for automotive mechanical design processes');
ENDSEC;
END-ISO-10303-21;
